<?xml version="1.0" encoding="UTF-8" standalone="no"?>
<!-- Created with Inkscape (http://www.inkscape.org/) -->

<svg
   version="1.1"
   id="svg4251"
   width="816"
   height="864"
   viewBox="0 0 816 864"
   sodipodi:docname="hackbu_logo_93348d.svg"
   inkscape:version="1.2.2 (b0a8486541, 2022-12-01)"
   xmlns:inkscape="http://www.inkscape.org/namespaces/inkscape"
   xmlns:sodipodi="http://sodipodi.sourceforge.net/DTD/sodipodi-0.dtd"
   xmlns="http://www.w3.org/2000/svg"
   xmlns:svg="http://www.w3.org/2000/svg">
  <defs
     id="defs4255">
    <clipPath
       clipPathUnits="userSpaceOnUse"
       id="clipPath4267">
      <path
         d="M 0,648 H 612 V 0 H 0 Z"
         id="path4265" />
    </clipPath>
  </defs>
  <sodipodi:namedview
     id="namedview4253"
     pagecolor="#ffffff"
     bordercolor="#000000"
     borderopacity="0.25"
     inkscape:showpageshadow="2"
     inkscape:pageopacity="0.0"
     inkscape:pagecheckerboard="0"
     inkscape:deskcolor="#d1d1d1"
     showgrid="false"
     inkscape:zoom="0.68910175"
     inkscape:cx="328.68876"
     inkscape:cy="349.73065"
     inkscape:window-width="871"
     inkscape:window-height="1051"
     inkscape:window-x="0"
     inkscape:window-y="25"
     inkscape:window-maximized="1"
     inkscape:current-layer="g4259">
    <inkscape:page
       x="0"
       y="0"
       id="page4257"
       width="816"
       height="864" />
  </sodipodi:namedview>
  <g
     id="g4259"
     inkscape:groupmode="layer"
     inkscape:label="Page 1"
     transform="matrix(1.3333333,0,0,-1.3333333,0,864)"
     style="stroke:none;stroke-opacity:1;fill:#93348d;fill-opacity:1">
    <g
       id="g4261"
       style="stroke:none;stroke-opacity:1;fill:#93348d;fill-opacity:1">
      <g
         id="g4263"
         clip-path="url(#clipPath4267)"
         style="stroke:none;stroke-opacity:1;fill:#93348d;fill-opacity:1">
        <g
           id="g4269"
           transform="translate(394.4248,356.0884)"
           style="stroke:none;stroke-opacity:1;fill:#93348d;fill-opacity:1">
          <path
             d="m 0,0 c -0.124,-0.076 -0.254,-0.151 -0.378,-0.22 -4.468,-2.571 -4.468,-2.571 -4.468,2.509 0,8.117 0.014,16.228 -0.02,24.338 -0.007,1.334 0.096,2.152 1.828,2.145 17.032,-0.062 34.058,-0.042 51.09,-0.048 0.178,0 0.364,-0.076 0.756,-0.159 C 32.422,18.97 16.207,9.485 0,0 m 72.294,34.807 c -0.371,2.254 -1.891,3.285 -4.034,3.711 -0.949,0.192 -1.877,0.241 -2.825,0.241 -12.132,0.007 -24.263,0 -36.395,0 h -3.065 c -11.404,0 -22.806,0.034 -34.203,-0.014 -4.549,-0.02 -6.495,-1.87 -6.454,-6.262 0.145,-14.392 0.22,-28.799 -0.041,-43.185 -0.082,-4.901 3.973,-7.224 8.118,-4.818 7.953,4.605 15.857,9.286 23.782,13.932 11.643,6.818 23.287,13.63 34.93,20.442 5.911,3.464 11.808,6.962 17.747,10.385 2.241,1.292 2.838,3.21 2.44,5.568 M -167.311,-0.887 c 0,-1.464 -0.303,-1.842 -1.746,-0.989 -14.386,8.474 -28.813,16.901 -43.226,25.334 -2.743,1.609 -5.486,3.224 -8.228,4.839 0.062,0.145 0.124,0.296 0.186,0.44 17.101,0 34.201,-0.013 51.296,0.028 1.388,0 1.732,-0.515 1.725,-1.808 -0.034,-9.279 -0.028,-18.558 -0.007,-27.844 m 9.685,35.061 c 0,2.138 -1.183,3.409 -3.045,4.069 -1.155,0.413 -2.392,0.543 -3.657,0.536 -12.2,-0.027 -24.401,-0.02 -36.608,-0.02 h -36.607 c -1.017,0 -2.021,-0.034 -3.031,-0.275 -2.337,-0.55 -3.987,-1.925 -4.207,-4.097 -0.226,-2.165 0.55,-3.959 2.612,-5.093 2.434,-1.333 4.791,-2.791 7.176,-4.192 16.991,-9.939 33.982,-19.878 50.973,-29.817 6.227,-3.65 12.44,-7.32 18.695,-10.922 3.581,-2.062 7.678,-0.048 7.685,3.781 0.034,15.341 0.007,30.689 0.014,46.03 M 0,0 c -0.124,-0.076 -0.254,-0.151 -0.378,-0.22 -4.468,-2.571 -4.468,-2.571 -4.468,2.509 0,8.117 0.014,16.228 -0.02,24.338 -0.007,1.334 0.096,2.152 1.828,2.145 17.032,-0.062 34.058,-0.042 51.09,-0.048 0.178,0 0.364,-0.076 0.756,-0.159 C 32.422,18.97 16.207,9.485 0,0 m 72.294,34.807 c -0.371,2.254 -1.891,3.285 -4.034,3.711 -0.949,0.192 -1.877,0.241 -2.825,0.241 -12.132,0.007 -24.263,0 -36.395,0 h -3.065 c -11.404,0 -22.806,0.034 -34.203,-0.014 -4.549,-0.02 -6.495,-1.87 -6.454,-6.262 0.145,-14.392 0.22,-28.799 -0.041,-43.185 -0.082,-4.901 3.973,-7.224 8.118,-4.818 7.953,4.605 15.857,9.286 23.782,13.932 11.643,6.818 23.287,13.63 34.93,20.442 5.911,3.464 11.808,6.962 17.747,10.385 2.241,1.292 2.838,3.21 2.44,5.568 M -167.311,-0.887 c 0,-1.464 -0.303,-1.842 -1.746,-0.989 -14.386,8.474 -28.813,16.901 -43.226,25.334 -2.743,1.609 -5.486,3.224 -8.228,4.839 0.062,0.145 0.124,0.296 0.186,0.44 17.101,0 34.201,-0.013 51.296,0.028 1.388,0 1.732,-0.515 1.725,-1.808 -0.034,-9.279 -0.028,-18.558 -0.007,-27.844 m 9.685,35.061 c 0,2.138 -1.183,3.409 -3.045,4.069 -1.155,0.413 -2.392,0.543 -3.657,0.536 -12.2,-0.027 -24.401,-0.02 -36.608,-0.02 h -36.607 c -1.017,0 -2.021,-0.034 -3.031,-0.275 -2.337,-0.55 -3.987,-1.925 -4.207,-4.097 -0.226,-2.165 0.55,-3.959 2.612,-5.093 2.434,-1.333 4.791,-2.791 7.176,-4.192 16.991,-9.939 33.982,-19.878 50.973,-29.817 6.227,-3.65 12.44,-7.32 18.695,-10.922 3.581,-2.062 7.678,-0.048 7.685,3.781 0.034,15.341 0.007,30.689 0.014,46.03 M 0,0 c -0.124,-0.076 -0.254,-0.151 -0.378,-0.22 -4.468,-2.571 -4.468,-2.571 -4.468,2.509 0,8.117 0.014,16.228 -0.02,24.338 -0.007,1.334 0.096,2.152 1.828,2.145 17.032,-0.062 34.058,-0.042 51.09,-0.048 0.178,0 0.364,-0.076 0.756,-0.159 C 32.422,18.97 16.207,9.485 0,0 m 72.294,34.807 c -0.371,2.254 -1.891,3.285 -4.034,3.711 -0.949,0.192 -1.877,0.241 -2.825,0.241 -12.132,0.007 -24.263,0 -36.395,0 h -3.065 c -11.404,0 -22.806,0.034 -34.203,-0.014 -4.549,-0.02 -6.495,-1.87 -6.454,-6.262 0.145,-14.392 0.22,-28.799 -0.041,-43.185 -0.082,-4.901 3.973,-7.224 8.118,-4.818 7.953,4.605 15.857,9.286 23.782,13.932 11.643,6.818 23.287,13.63 34.93,20.442 5.911,3.464 11.808,6.962 17.747,10.385 2.241,1.292 2.838,3.21 2.44,5.568 M -167.311,-0.887 c 0,-1.464 -0.303,-1.842 -1.746,-0.989 -14.386,8.474 -28.813,16.901 -43.226,25.334 -2.743,1.609 -5.486,3.224 -8.228,4.839 0.062,0.145 0.124,0.296 0.186,0.44 17.101,0 34.201,-0.013 51.296,0.028 1.388,0 1.732,-0.515 1.725,-1.808 -0.034,-9.279 -0.028,-18.558 -0.007,-27.844 m 9.685,35.061 c 0,2.138 -1.183,3.409 -3.045,4.069 -1.155,0.413 -2.392,0.543 -3.657,0.536 -12.2,-0.027 -24.401,-0.02 -36.608,-0.02 h -36.607 c -1.017,0 -2.021,-0.034 -3.031,-0.275 -2.337,-0.55 -3.987,-1.925 -4.207,-4.097 -0.226,-2.165 0.55,-3.959 2.612,-5.093 2.434,-1.333 4.791,-2.791 7.176,-4.192 16.991,-9.939 33.982,-19.878 50.973,-29.817 6.227,-3.65 12.44,-7.32 18.695,-10.922 3.581,-2.062 7.678,-0.048 7.685,3.781 0.034,15.341 0.007,30.689 0.014,46.03 M 0,0 c -0.124,-0.076 -0.254,-0.151 -0.378,-0.22 -4.468,-2.571 -4.468,-2.571 -4.468,2.509 0,8.117 0.014,16.228 -0.02,24.338 -0.007,1.334 0.096,2.152 1.828,2.145 17.032,-0.062 34.058,-0.042 51.09,-0.048 0.178,0 0.364,-0.076 0.756,-0.159 C 32.422,18.97 16.207,9.485 0,0 m 72.294,34.807 c -0.371,2.254 -1.891,3.285 -4.034,3.711 -0.949,0.192 -1.877,0.241 -2.825,0.241 -12.132,0.007 -24.263,0 -36.395,0 h -3.065 c -11.404,0 -22.806,0.034 -34.203,-0.014 -4.549,-0.02 -6.495,-1.87 -6.454,-6.262 0.145,-14.392 0.22,-28.799 -0.041,-43.185 -0.082,-4.901 3.973,-7.224 8.118,-4.818 7.953,4.605 15.857,9.286 23.782,13.932 11.643,6.818 23.287,13.63 34.93,20.442 5.911,3.464 11.808,6.962 17.747,10.385 2.241,1.292 2.838,3.21 2.44,5.568 M -167.311,-0.887 c 0,-1.464 -0.303,-1.842 -1.746,-0.989 -14.386,8.474 -28.813,16.901 -43.226,25.334 -2.743,1.609 -5.486,3.224 -8.228,4.839 0.062,0.145 0.124,0.296 0.186,0.44 17.101,0 34.201,-0.013 51.296,0.028 1.388,0 1.732,-0.515 1.725,-1.808 -0.034,-9.279 -0.028,-18.558 -0.007,-27.844 m 9.685,35.061 c 0,2.138 -1.183,3.409 -3.045,4.069 -1.155,0.413 -2.392,0.543 -3.657,0.536 -12.2,-0.027 -24.401,-0.02 -36.608,-0.02 h -36.607 c -1.017,0 -2.021,-0.034 -3.031,-0.275 -2.337,-0.55 -3.987,-1.925 -4.207,-4.097 -0.226,-2.165 0.55,-3.959 2.612,-5.093 2.434,-1.333 4.791,-2.791 7.176,-4.192 16.991,-9.939 33.982,-19.878 50.973,-29.817 6.227,-3.65 12.44,-7.32 18.695,-10.922 3.581,-2.062 7.678,-0.048 7.685,3.781 0.034,15.341 0.007,30.689 0.014,46.03 M 0,0 c -0.124,-0.076 -0.254,-0.151 -0.378,-0.22 -4.468,-2.571 -4.468,-2.571 -4.468,2.509 0,8.117 0.014,16.228 -0.02,24.338 -0.007,1.334 0.096,2.152 1.828,2.145 17.032,-0.062 34.058,-0.042 51.09,-0.048 0.178,0 0.364,-0.076 0.756,-0.159 C 32.422,18.97 16.207,9.485 0,0 m 72.294,34.807 c -0.371,2.254 -1.891,3.285 -4.034,3.711 -0.949,0.192 -1.877,0.241 -2.825,0.241 -12.132,0.007 -24.263,0 -36.395,0 h -3.065 c -11.404,0 -22.806,0.034 -34.203,-0.014 -4.549,-0.02 -6.495,-1.87 -6.454,-6.262 0.145,-14.392 0.22,-28.799 -0.041,-43.185 -0.082,-4.901 3.973,-7.224 8.118,-4.818 7.953,4.605 15.857,9.286 23.782,13.932 11.643,6.818 23.287,13.63 34.93,20.442 5.911,3.464 11.808,6.962 17.747,10.385 2.241,1.292 2.838,3.21 2.44,5.568 M -167.311,-0.887 c 0,-1.464 -0.303,-1.842 -1.746,-0.989 -14.386,8.474 -28.813,16.901 -43.226,25.334 -2.743,1.609 -5.486,3.224 -8.228,4.839 0.062,0.145 0.124,0.296 0.186,0.44 17.101,0 34.201,-0.013 51.296,0.028 1.388,0 1.732,-0.515 1.725,-1.808 -0.034,-9.279 -0.028,-18.558 -0.007,-27.844 m 9.685,35.061 c 0,2.138 -1.183,3.409 -3.045,4.069 -1.155,0.413 -2.392,0.543 -3.657,0.536 -12.2,-0.027 -24.401,-0.02 -36.608,-0.02 h -36.607 c -1.017,0 -2.021,-0.034 -3.031,-0.275 -2.337,-0.55 -3.987,-1.925 -4.207,-4.097 -0.226,-2.165 0.55,-3.959 2.612,-5.093 2.434,-1.333 4.791,-2.791 7.176,-4.192 16.991,-9.939 33.982,-19.878 50.973,-29.817 6.227,-3.65 12.44,-7.32 18.695,-10.922 3.581,-2.062 7.678,-0.048 7.685,3.781 0.034,15.341 0.007,30.689 0.014,46.03 M 0,0 c -0.124,-0.076 -0.254,-0.151 -0.378,-0.22 -4.468,-2.571 -4.468,-2.571 -4.468,2.509 0,8.117 0.014,16.228 -0.02,24.338 -0.007,1.334 0.096,2.152 1.828,2.145 17.032,-0.062 34.058,-0.042 51.09,-0.048 0.178,0 0.364,-0.076 0.756,-0.159 C 32.422,18.97 16.207,9.485 0,0 m 72.294,34.807 c -0.371,2.254 -1.891,3.285 -4.034,3.711 -0.949,0.192 -1.877,0.241 -2.825,0.241 -12.132,0.007 -24.263,0 -36.395,0 h -3.065 c -11.404,0 -22.806,0.034 -34.203,-0.014 -4.549,-0.02 -6.495,-1.87 -6.454,-6.262 0.145,-14.392 0.22,-28.799 -0.041,-43.185 -0.082,-4.901 3.973,-7.224 8.118,-4.818 7.953,4.605 15.857,9.286 23.782,13.932 11.643,6.818 23.287,13.63 34.93,20.442 5.911,3.464 11.808,6.962 17.747,10.385 2.241,1.292 2.838,3.21 2.44,5.568 M -167.311,-0.887 c 0,-1.464 -0.303,-1.842 -1.746,-0.989 -14.386,8.474 -28.813,16.901 -43.226,25.334 -2.743,1.609 -5.486,3.224 -8.228,4.839 0.062,0.145 0.124,0.296 0.186,0.44 17.101,0 34.201,-0.013 51.296,0.028 1.388,0 1.732,-0.515 1.725,-1.808 -0.034,-9.279 -0.028,-18.558 -0.007,-27.844 m 9.685,35.061 c 0,2.138 -1.183,3.409 -3.045,4.069 -1.155,0.413 -2.392,0.543 -3.657,0.536 -12.2,-0.027 -24.401,-0.02 -36.608,-0.02 h -36.607 c -1.017,0 -2.021,-0.034 -3.031,-0.275 -2.337,-0.55 -3.987,-1.925 -4.207,-4.097 -0.226,-2.165 0.55,-3.959 2.612,-5.093 2.434,-1.333 4.791,-2.791 7.176,-4.192 16.991,-9.939 33.982,-19.878 50.973,-29.817 6.227,-3.65 12.44,-7.32 18.695,-10.922 3.581,-2.062 7.678,-0.048 7.685,3.781 0.034,15.341 0.007,30.689 0.014,46.03 M 0,0 c -0.124,-0.076 -0.254,-0.151 -0.378,-0.22 -4.468,-2.571 -4.468,-2.571 -4.468,2.509 0,8.117 0.014,16.228 -0.02,24.338 -0.007,1.334 0.096,2.152 1.828,2.145 17.032,-0.062 34.058,-0.042 51.09,-0.048 0.178,0 0.364,-0.076 0.756,-0.159 C 32.422,18.97 16.207,9.485 0,0 m 72.294,34.807 c -0.371,2.254 -1.891,3.285 -4.034,3.711 -0.949,0.192 -1.877,0.241 -2.825,0.241 -12.132,0.007 -24.263,0 -36.395,0 h -3.065 c -11.404,0 -22.806,0.034 -34.203,-0.014 -4.549,-0.02 -6.495,-1.87 -6.454,-6.262 0.145,-14.392 0.22,-28.799 -0.041,-43.185 -0.082,-4.901 3.973,-7.224 8.118,-4.818 7.953,4.605 15.857,9.286 23.782,13.932 11.643,6.818 23.287,13.63 34.93,20.442 5.911,3.464 11.808,6.962 17.747,10.385 2.241,1.292 2.838,3.21 2.44,5.568 M -167.311,-0.887 c 0,-1.464 -0.303,-1.842 -1.746,-0.989 -14.386,8.474 -28.813,16.901 -43.226,25.334 -2.743,1.609 -5.486,3.224 -8.228,4.839 0.062,0.145 0.124,0.296 0.186,0.44 17.101,0 34.201,-0.013 51.296,0.028 1.388,0 1.732,-0.515 1.725,-1.808 -0.034,-9.279 -0.028,-18.558 -0.007,-27.844 m 9.685,35.061 c 0,2.138 -1.183,3.409 -3.045,4.069 -1.155,0.413 -2.392,0.543 -3.657,0.536 -12.2,-0.027 -24.401,-0.02 -36.608,-0.02 h -36.607 c -1.017,0 -2.021,-0.034 -3.031,-0.275 -2.337,-0.55 -3.987,-1.925 -4.207,-4.097 -0.226,-2.165 0.55,-3.959 2.612,-5.093 2.434,-1.333 4.791,-2.791 7.176,-4.192 16.991,-9.939 33.982,-19.878 50.973,-29.817 6.227,-3.65 12.44,-7.32 18.695,-10.922 3.581,-2.062 7.678,-0.048 7.685,3.781 0.034,15.341 0.007,30.689 0.014,46.03 M 0,0 c -0.124,-0.076 -0.254,-0.151 -0.378,-0.22 -4.468,-2.571 -4.468,-2.571 -4.468,2.509 0,8.117 0.014,16.228 -0.02,24.338 -0.007,1.334 0.096,2.152 1.828,2.145 17.032,-0.062 34.058,-0.042 51.09,-0.048 0.178,0 0.364,-0.076 0.756,-0.159 C 32.422,18.97 16.207,9.485 0,0 m 72.294,34.807 c -0.371,2.254 -1.891,3.285 -4.034,3.711 -0.949,0.192 -1.877,0.241 -2.825,0.241 -12.132,0.007 -24.263,0 -36.395,0 h -3.065 c -11.404,0 -22.806,0.034 -34.203,-0.014 -4.549,-0.02 -6.495,-1.87 -6.454,-6.262 0.145,-14.392 0.22,-28.799 -0.041,-43.185 -0.082,-4.901 3.973,-7.224 8.118,-4.818 7.953,4.605 15.857,9.286 23.782,13.932 11.643,6.818 23.287,13.63 34.93,20.442 5.911,3.464 11.808,6.962 17.747,10.385 2.241,1.292 2.838,3.21 2.44,5.568 M -167.311,-0.887 c 0,-1.464 -0.303,-1.842 -1.746,-0.989 -14.386,8.474 -28.813,16.901 -43.226,25.334 -2.743,1.609 -5.486,3.224 -8.228,4.839 0.062,0.145 0.124,0.296 0.186,0.44 17.101,0 34.201,-0.013 51.296,0.028 1.388,0 1.732,-0.515 1.725,-1.808 -0.034,-9.279 -0.028,-18.558 -0.007,-27.844 m 9.685,35.061 c 0,2.138 -1.183,3.409 -3.045,4.069 -1.155,0.413 -2.392,0.543 -3.657,0.536 -12.2,-0.027 -24.401,-0.02 -36.608,-0.02 h -36.607 c -1.017,0 -2.021,-0.034 -3.031,-0.275 -2.337,-0.55 -3.987,-1.925 -4.207,-4.097 -0.226,-2.165 0.55,-3.959 2.612,-5.093 2.434,-1.333 4.791,-2.791 7.176,-4.192 16.991,-9.939 33.982,-19.878 50.973,-29.817 6.227,-3.65 12.44,-7.32 18.695,-10.922 3.581,-2.062 7.678,-0.048 7.685,3.781 0.034,15.341 0.007,30.689 0.014,46.03 M 0,0 c -0.124,-0.076 -0.254,-0.151 -0.378,-0.22 -4.468,-2.571 -4.468,-2.571 -4.468,2.509 0,8.117 0.014,16.228 -0.02,24.338 -0.007,1.334 0.096,2.152 1.828,2.145 17.032,-0.062 34.058,-0.042 51.09,-0.048 0.178,0 0.364,-0.076 0.756,-0.159 C 32.422,18.97 16.207,9.485 0,0 m 72.294,34.807 c -0.371,2.254 -1.891,3.285 -4.034,3.711 -0.949,0.192 -1.877,0.241 -2.825,0.241 -12.132,0.007 -24.263,0 -36.395,0 h -3.065 c -11.404,0 -22.806,0.034 -34.203,-0.014 -4.549,-0.02 -6.495,-1.87 -6.454,-6.262 0.145,-14.392 0.22,-28.799 -0.041,-43.185 -0.082,-4.901 3.973,-7.224 8.118,-4.818 7.953,4.605 15.857,9.286 23.782,13.932 11.643,6.818 23.287,13.63 34.93,20.442 5.911,3.464 11.808,6.962 17.747,10.385 2.241,1.292 2.838,3.21 2.44,5.568 M -167.311,-0.887 c 0,-1.464 -0.303,-1.842 -1.746,-0.989 -14.386,8.474 -28.813,16.901 -43.226,25.334 -2.743,1.609 -5.486,3.224 -8.228,4.839 0.062,0.145 0.124,0.296 0.186,0.44 17.101,0 34.201,-0.013 51.296,0.028 1.388,0 1.732,-0.515 1.725,-1.808 -0.034,-9.279 -0.028,-18.558 -0.007,-27.844 m 9.685,35.061 c 0,2.138 -1.183,3.409 -3.045,4.069 -1.155,0.413 -2.392,0.543 -3.657,0.536 -12.2,-0.027 -24.401,-0.02 -36.608,-0.02 h -36.607 c -1.017,0 -2.021,-0.034 -3.031,-0.275 -2.337,-0.55 -3.987,-1.925 -4.207,-4.097 -0.226,-2.165 0.55,-3.959 2.612,-5.093 2.434,-1.333 4.791,-2.791 7.176,-4.192 16.991,-9.939 33.982,-19.878 50.973,-29.817 6.227,-3.65 12.44,-7.32 18.695,-10.922 3.581,-2.062 7.678,-0.048 7.685,3.781 0.034,15.341 0.007,30.689 0.014,46.03 m 338.038,-59.495 c -0.536,-0.296 -1.024,0.371 -1.526,0.646 -9.011,4.962 -18.008,9.952 -27.061,14.839 -1.409,0.763 -1.944,1.581 -1.944,3.203 0.061,26.105 0.061,52.203 0.02,78.308 -0.006,1.56 0.474,2.248 1.945,2.853 7.96,3.271 15.85,6.694 23.768,10.062 0.46,0.2 0.894,0.509 1.581,0.33 -0.041,-3.835 0.206,-7.691 0.385,-11.54 0.289,-6.42 0.289,-12.846 0.529,-19.266 0.351,-9.403 0.654,-18.813 0.942,-28.222 0.247,-8.234 0.598,-16.469 0.852,-24.71 0.261,-8.234 0.736,-16.468 0.811,-24.716 0.007,-0.605 0.35,-1.43 -0.302,-1.787 m -0.64,-13.355 c -3.979,-14.283 -7.842,-28.608 -11.766,-42.904 -0.97,-3.553 -3.616,-6.117 -5.616,-9.032 -6.86,-9.966 -13.87,-19.836 -20.827,-29.74 -10.055,-14.311 -20.104,-28.635 -30.201,-42.918 -1.099,-1.553 -1.01,-3.195 -0.818,-4.832 0.935,-7.932 2.014,-15.85 2.956,-23.788 0.817,-6.853 1.498,-13.727 2.296,-20.586 0.494,-4.255 1.1,-8.495 1.677,-12.743 0.33,-2.419 0.158,-2.598 -2.248,-1.946 -13.534,3.692 -27.068,7.417 -40.621,11.04 -1.733,0.466 -1.815,1.443 -1.815,2.866 0.027,25.362 0.021,50.732 0.021,76.094 0,25.226 0.027,50.444 -0.048,75.663 -0.007,1.944 0.604,3.079 2.254,4.02 14.681,8.406 29.342,16.867 44.003,25.315 8.028,4.619 16.063,9.23 24.057,13.911 1.168,0.681 2.007,0.873 3.34,0.138 10.592,-5.863 21.246,-11.63 31.92,-17.348 1.464,-0.784 1.918,-1.492 1.436,-3.21 M 62.994,-57.523 c 0.069,-33.047 0.041,-66.102 0.041,-99.155 v -53.53 c 0,-2.921 0.007,-2.886 -2.769,-2.117 -9.389,2.613 -18.786,5.21 -28.188,7.767 -3.814,1.045 -5.368,0.275 -7.354,-3.175 -9.54,-16.647 -19.116,-33.281 -28.676,-49.922 -0.138,-0.24 -0.33,-0.453 -0.901,-1.244 v 3.024 c 0,21.94 -0.02,43.88 0.021,65.82 0.007,2.68 -0.859,4.481 -3.396,5.739 -11.705,5.808 -23.348,11.754 -35.012,17.65 -9.967,5.046 -19.933,10.084 -29.9,15.136 -0.769,0.392 -1.511,0.839 -2.604,1.45 3.45,1.994 6.626,3.856 9.822,5.678 19.211,10.943 38.415,21.892 57.653,32.792 2.378,1.348 3.341,3.251 3.334,5.904 -0.035,16.166 -0.006,32.326 -0.021,48.486 0,4.831 -3.801,7.196 -8.034,4.824 -9.225,-5.175 -18.366,-10.502 -27.542,-15.774 -13.28,-7.636 -26.703,-15.045 -39.77,-23.053 -4.439,-2.722 -7.518,-2.441 -11.863,0.144 -18.503,10.997 -37.267,21.555 -55.935,32.264 -3.801,2.179 -7.595,4.378 -11.458,6.433 -4.323,2.302 -7.753,0.193 -7.753,-4.701 -0.014,-16.379 0.041,-32.758 -0.055,-49.145 -0.014,-2.694 0.983,-4.398 3.237,-5.677 13.712,-7.788 27.391,-15.616 41.082,-23.425 8.434,-4.804 16.875,-9.594 25.308,-14.406 0.227,-0.131 0.412,-0.344 0.612,-0.522 -0.406,-0.742 -1.093,-0.873 -1.65,-1.155 -14.853,-7.519 -29.713,-15.025 -44.574,-22.545 -7.1,-3.587 -14.2,-7.189 -21.3,-10.791 -2,-1.017 -3.031,-2.632 -3.031,-4.921 0.02,-19.521 -0.062,-39.047 0.096,-58.575 0.027,-3.56 0.206,-7.141 -0.069,-10.922 -1.374,2.296 -2.777,4.578 -4.11,6.894 -8.619,14.991 -17.225,29.995 -25.844,44.986 -1.58,2.756 -3.278,3.478 -6.392,2.626 -9.609,-2.626 -19.204,-5.306 -28.82,-7.939 -2.461,-0.673 -2.481,-0.625 -2.481,1.959 0,50.678 -0.028,101.354 0.048,152.032 0.007,3.869 -1.347,6.22 -4.805,8.165 -14.042,7.918 -27.926,16.132 -41.865,24.236 -9.396,5.464 -18.778,10.963 -28.215,16.358 -1.478,0.846 -1.993,1.808 -1.973,3.485 0.09,6.51 0.055,13.018 0.021,19.528 -0.103,19.513 -0.2,39.02 -0.378,58.533 -0.014,1.835 0.543,2.88 2.158,3.801 17.946,10.207 35.858,20.489 53.777,30.758 4.997,2.866 10.021,5.698 14.984,8.626 1.244,0.736 2.172,0.612 3.395,-0.089 14.105,-8.104 28.257,-16.139 42.388,-24.208 12.867,-7.341 25.713,-14.716 38.58,-22.057 14.008,-7.993 28.023,-15.973 42.031,-23.96 8.495,-4.839 17.032,-9.609 25.472,-14.544 2.434,-1.423 4.626,-1.382 6.963,-0.048 7.671,4.371 15.349,8.735 23.019,13.114 13.114,7.485 26.236,14.97 39.35,22.455 15.273,8.716 30.545,17.438 45.818,26.153 13.568,7.74 27.136,15.472 40.683,23.246 1.182,0.681 2.062,0.543 3.204,-0.117 17.932,-10.379 35.899,-20.709 53.852,-31.054 5.066,-2.907 10.11,-5.835 15.196,-8.708 1.341,-0.756 1.932,-1.664 1.891,-3.293 -0.701,-26.311 -0.274,-52.629 -0.364,-78.94 -0.007,-1.237 -0.337,-1.966 -1.457,-2.612 -16.077,-9.224 -32.126,-18.496 -48.183,-27.755 -7.904,-4.549 -15.781,-9.155 -23.747,-13.589 -2.646,-1.477 -3.554,-3.443 -3.547,-6.398 m -147.391,-99.705 c 20.777,-10.53 41.597,-20.978 62.402,-31.445 0.454,-0.227 0.894,-0.482 1.623,-0.873 -3.424,-1.973 -6.654,-3.85 -9.892,-5.699 -17.217,-9.856 -34.483,-19.636 -51.632,-29.617 -2.928,-1.704 -5.052,-2.007 -8.193,-0.158 -15.829,9.341 -31.851,18.359 -47.804,27.479 -4.557,2.606 -9.128,5.183 -14.028,7.974 1.367,0.694 2.398,1.231 3.436,1.753 20.153,10.145 40.312,20.283 60.451,30.448 1.244,0.626 2.248,0.839 3.637,0.138 m -73.236,72.514 c 0,5.849 0.069,11.698 -0.042,17.541 -0.034,2.013 0.475,1.986 1.994,1.106 16.351,-9.458 32.723,-18.881 49.103,-28.291 5.945,-3.416 11.911,-6.783 17.877,-10.158 1.815,-1.025 3.65,-0.853 5.41,0.144 6.777,3.863 13.547,7.74 20.317,11.622 13.286,7.617 26.573,15.246 39.852,22.862 2.09,1.203 4.165,2.412 6.268,3.588 2.221,1.23 2.235,1.21 2.235,-1.45 v -16.008 c 0,-6.139 -0.049,-12.284 0.034,-18.421 0.021,-1.581 -0.475,-2.502 -1.891,-3.299 -18.455,-10.476 -36.881,-21.013 -55.316,-31.528 -4.248,-2.42 -8.517,-4.798 -12.723,-7.273 -1.154,-0.68 -2.048,-0.632 -3.203,0.021 -22.853,13.066 -45.728,26.105 -68.623,39.102 -1.079,0.619 -1.32,1.341 -1.313,2.461 0.041,5.993 0.021,11.987 0.021,17.981 m 140.718,-191.657 c -21.686,-11.299 -43.405,-22.531 -64.912,-34.16 -3.685,-1.994 -6.049,-1.293 -9.245,0.453 -10.179,5.561 -20.524,10.826 -30.8,16.221 -11.113,5.843 -22.207,11.713 -33.335,17.527 -1.437,0.749 -2.11,1.629 -2.035,3.389 0.172,3.939 0.062,7.891 0.042,11.843 -0.138,20.462 -0.282,40.917 -0.42,61.379 0,0.42 0.049,0.839 0.097,1.588 3.938,-2.241 7.67,-4.337 11.382,-6.468 15.375,-8.818 30.751,-17.651 46.12,-26.484 3.354,-1.923 6.708,-3.848 10.021,-5.834 2.551,-1.527 4.942,-1.568 7.596,-0.041 18.385,10.612 36.827,21.142 55.248,31.699 4.034,2.316 8.055,4.653 12.131,7.004 0.591,-0.77 0.384,-1.444 0.384,-2.048 0.015,-24.133 -0.013,-48.258 0.056,-72.391 0.007,-1.903 -0.694,-2.831 -2.33,-3.677 m -228.065,139.048 c 0,-25.294 -0.034,-50.588 0.055,-75.875 0.007,-2.131 -0.721,-2.845 -2.639,-3.368 -13.273,-3.567 -26.511,-7.251 -39.756,-10.907 -2.399,-0.667 -2.598,-0.619 -2.344,1.786 0.55,5.279 1.224,10.544 1.863,15.81 0.68,5.622 1.368,11.244 2.055,16.874 0.832,6.845 1.67,13.698 2.495,20.55 0.213,1.733 0.357,3.472 0.584,5.203 0.228,1.733 -0.515,3.093 -1.463,4.441 -10.496,14.991 -20.978,29.988 -31.467,44.979 -7.78,11.108 -15.589,22.187 -23.335,33.322 -1.965,2.818 -2.206,6.282 -3.093,9.492 -3.381,12.186 -6.626,24.414 -10.014,36.6 -0.426,1.527 -0.048,2.118 1.278,2.833 10.784,5.814 21.534,11.705 32.271,17.616 1.017,0.564 1.801,0.571 2.811,-0.021 22.668,-13.107 45.343,-26.215 68.06,-39.247 1.945,-1.113 2.701,-2.344 2.694,-4.645 -0.089,-25.151 -0.055,-50.293 -0.055,-75.443 m -107.898,111.788 c -0.295,8.132 0.426,16.132 0.543,24.154 0.131,8.749 0.55,17.492 0.846,26.235 0.288,8.599 0.584,17.197 0.872,25.796 0.296,8.674 0.495,17.355 0.935,26.016 0.145,2.749 0.206,5.512 0.371,8.543 3.794,-1.608 7.403,-3.121 11.005,-4.66 4.763,-2.028 9.499,-4.104 14.283,-6.083 1.326,-0.55 1.862,-1.292 1.862,-2.784 -0.013,-26.235 0.028,-52.471 0.069,-78.706 0,-0.983 -0.041,-1.781 -1.1,-2.358 -9.732,-5.313 -19.431,-10.681 -29.136,-16.029 -0.124,-0.068 -0.275,-0.068 -0.55,-0.124 M 57.496,121.445 C 57.461,120.682 56.279,120.552 55.592,120.16 37.419,109.753 19.238,99.354 1.045,88.962 -16.895,78.72 -34.848,68.507 -52.787,58.258 -63.435,52.183 -74.061,46.072 -84.707,39.976 c -0.433,-0.248 -0.9,-0.454 -1.416,-0.708 -0.729,0.371 -1.45,0.708 -2.138,1.106 -11.98,6.846 -23.953,13.692 -35.92,20.544 -12.791,7.321 -25.575,14.662 -38.374,21.975 -12.667,7.244 -25.349,14.468 -38.03,21.699 -9.382,5.354 -18.757,10.722 -28.16,16.035 -1.285,0.729 -1.278,1.1 -0.021,1.815 5.389,3.065 10.744,6.2 16.125,9.286 12.53,7.196 25.074,14.372 37.611,21.562 3.794,2.178 7.623,4.316 11.369,6.577 1.051,0.633 1.794,0.261 2.619,-0.213 6.467,-3.684 12.928,-7.382 19.389,-11.08 11.713,-6.708 23.431,-13.416 35.144,-20.138 5.505,-3.155 11.025,-6.296 16.503,-9.513 2.557,-1.506 4.894,-1.609 7.574,-0.055 13.513,7.835 27.102,15.533 40.662,23.287 10.07,5.76 20.161,11.492 30.181,17.341 1.361,0.791 2.317,0.742 3.581,0.014 10.435,-6.014 20.896,-11.98 31.343,-17.974 10.51,-6.021 21.012,-12.063 31.515,-18.091 0.254,-0.144 0.549,-0.234 0.769,-0.419 0.653,-0.529 1.918,-0.673 1.877,-1.581 M -312.421,87.938 v 158.836 c 5.368,-2.708 10.385,-5.217 15.376,-7.767 11.499,-5.877 22.991,-11.788 34.497,-17.672 18.778,-9.615 37.563,-19.224 56.34,-28.84 8.641,-4.427 17.273,-8.867 25.893,-13.334 1.202,-0.626 2.419,-0.908 3.766,-0.908 60.32,0.007 120.648,0.021 180.969,-0.02 2.687,-0.007 4.701,1.464 6.873,2.563 11.589,5.871 23.136,11.829 34.703,17.754 18.717,9.582 37.433,19.157 56.142,28.738 12.22,6.254 24.442,12.489 36.635,18.792 1.134,0.584 1.581,0.625 1.485,-0.784 -0.028,-0.433 -0.007,-0.873 -0.007,-1.313 V 88.46 c 0,-0.364 -0.021,-0.729 0.007,-1.093 0.109,-1.429 -0.262,-1.636 -1.554,-0.873 -5.601,3.279 -11.266,6.454 -16.901,9.685 -14.558,8.344 -29.109,16.702 -43.666,25.053 -14.304,8.207 -28.608,16.414 -42.911,24.627 -14.042,8.063 -28.091,16.132 -42.126,24.215 -1.966,1.127 -3.864,1.052 -5.802,-0.055 -17.458,-10.021 -34.93,-20.042 -52.396,-30.057 -6.398,-3.67 -12.811,-7.299 -19.183,-10.997 -1.244,-0.722 -2.206,-0.853 -3.574,-0.069 -15.726,9.093 -31.508,18.098 -47.268,27.136 -8.166,4.674 -16.331,9.355 -24.49,14.049 -1.966,1.134 -3.869,1.038 -5.794,-0.069 -17.142,-9.856 -34.278,-19.72 -51.426,-29.555 -14.551,-8.351 -29.13,-16.668 -43.688,-25.012 -15.189,-8.709 -30.373,-17.445 -45.556,-26.167 -1.705,-0.983 -3.437,-1.924 -5.107,-2.963 -1.045,-0.652 -1.278,-0.247 -1.244,0.749 0.013,0.29 0.007,0.585 0.007,0.874 M 191.135,-31.59 c -0.805,5.519 -0.303,11.073 -0.667,16.613 -0.592,8.873 -0.722,17.781 -0.943,26.682 -0.219,9.114 -0.473,18.235 -0.865,27.349 -0.399,9.183 -0.639,18.373 -0.893,27.563 -0.221,7.883 -0.365,15.774 -0.557,23.657 -0.022,0.791 -0.124,1.595 -0.269,2.379 -0.769,4.138 -3.409,5.567 -7.327,3.966 -9.176,-3.76 -18.365,-7.499 -27.507,-11.327 -1.855,-0.777 -2.219,-0.447 -2.212,1.553 0.061,28.009 0.041,56.018 0.041,84.027 v 35.315 c 0,16.159 -0.021,32.318 0.027,48.478 0.007,2.295 -0.907,3.8 -2.99,4.543 -1.718,0.611 -3.389,0.405 -5.066,-0.461 C 124.572,249.839 107.218,240.966 89.862,232.085 77.25,225.631 64.644,219.17 52.031,212.723 36.422,204.75 20.806,196.798 5.21,188.811 4,188.192 2.798,187.924 1.443,187.924 c -58.361,0.021 -116.716,0.021 -175.071,0 -1.354,0 -2.557,0.268 -3.767,0.887 -11.031,5.691 -22.076,11.361 -33.122,17.019 -12.544,6.426 -25.087,12.839 -37.638,19.252 -13.782,7.045 -27.563,14.097 -41.35,21.135 -8.324,4.248 -16.689,8.42 -24.965,12.757 -3.697,1.939 -5.952,0.103 -7.258,-2.007 -0.742,-1.196 -0.453,-2.564 -0.453,-3.856 -0.014,-52.066 -0.014,-104.131 -0.014,-156.197 0,-3.292 0.007,-6.584 0,-9.877 -0.007,-2.426 -0.117,-2.529 -2.262,-1.642 -3.168,1.312 -6.309,2.68 -9.464,4.021 -5.904,2.508 -11.795,5.058 -17.726,7.512 -4.186,1.739 -7.066,-0.419 -7.375,-4.894 -0.454,-6.557 -0.393,-13.121 -0.708,-19.678 -0.427,-8.819 -0.64,-17.644 -0.921,-26.47 -0.268,-8.309 -0.605,-16.619 -0.867,-24.936 -0.288,-8.894 -0.508,-17.795 -0.914,-26.689 -0.323,-7.073 -0.419,-14.159 -0.536,-21.239 -0.048,-2.749 -0.845,-5.464 -0.069,-8.255 4.028,-14.585 7.96,-29.198 12.042,-43.776 0.86,-3.066 1.121,-6.407 2.97,-9.087 7.114,-10.33 14.358,-20.571 21.541,-30.855 10.818,-15.485 21.609,-30.984 32.456,-46.442 1.086,-1.547 1.45,-2.963 1.079,-4.874 -0.577,-2.989 -0.736,-6.055 -1.079,-9.093 -0.633,-5.56 -1.251,-11.128 -1.904,-16.688 -0.66,-5.554 -1.375,-11.108 -2.035,-16.661 -0.838,-7.004 -1.574,-14.022 -2.501,-21.019 -0.475,-3.581 2.934,-6.777 6.44,-5.809 29.535,8.125 59.076,16.229 88.597,24.408 1.423,0.399 1.911,-0.041 2.536,-1.134 11.74,-20.607 23.5,-41.193 35.289,-61.771 1.003,-1.753 1.938,-3.54 3.917,-4.571 17.335,-9.065 34.642,-18.193 51.956,-27.294 6.915,-3.629 13.966,-7.031 20.71,-10.956 3.594,-2.097 6.536,-2.138 10.165,-0.172 15.087,8.166 30.297,16.098 45.467,24.098 9.169,4.839 18.359,9.643 27.541,14.448 1.066,0.564 1.891,1.34 2.489,2.385 7.842,13.754 15.692,27.508 23.534,41.261 4.159,7.286 8.338,14.564 12.462,21.871 0.776,1.388 1.525,1.89 3.278,1.402 14.571,-4.083 29.185,-8.021 43.783,-12.008 14.95,-4.083 29.9,-8.158 44.842,-12.282 1.072,-0.296 1.932,-0.262 2.9,0.288 2.674,1.506 3.437,3.348 2.936,6.853 -0.626,4.392 -1.169,8.791 -1.678,13.197 -0.783,6.791 -1.484,13.596 -2.267,20.387 -1.135,9.821 -2.241,19.65 -3.533,29.445 -0.22,1.663 0.24,2.756 1.099,3.973 9.499,13.56 18.964,27.142 28.456,40.71 6.935,9.918 13.967,19.775 20.806,29.762 2.247,3.279 5.14,6.22 6.233,10.214 4.076,14.956 8.139,29.912 12.18,44.876 0.757,2.804 1.897,5.588 1.465,8.557 m -358.446,30.703 c 0,-1.464 -0.303,-1.842 -1.746,-0.989 -14.386,8.474 -28.813,16.901 -43.226,25.334 -2.743,1.609 -5.486,3.224 -8.228,4.839 0.062,0.145 0.124,0.296 0.186,0.44 17.101,0 34.201,-0.013 51.296,0.028 1.388,0 1.732,-0.515 1.725,-1.808 -0.034,-9.279 -0.028,-18.558 -0.007,-27.844 m 6.64,39.13 c -1.155,0.413 -2.392,0.543 -3.657,0.536 -12.2,-0.027 -24.401,-0.02 -36.608,-0.02 h -36.607 c -1.017,0 -2.021,-0.034 -3.031,-0.275 -2.337,-0.55 -3.987,-1.925 -4.207,-4.097 -0.226,-2.165 0.55,-3.959 2.612,-5.093 2.434,-1.333 4.791,-2.791 7.176,-4.192 16.991,-9.939 33.982,-19.878 50.973,-29.817 6.227,-3.65 12.44,-7.32 18.695,-10.922 3.581,-2.062 7.678,-0.048 7.685,3.781 0.034,15.341 0.007,30.689 0.014,46.03 0,2.138 -1.183,3.409 -3.045,4.069 M 0,0 c -0.124,-0.076 -0.254,-0.151 -0.378,-0.22 -4.468,-2.571 -4.468,-2.571 -4.468,2.509 0,8.117 0.014,16.228 -0.02,24.338 -0.007,1.334 0.096,2.152 1.828,2.145 17.032,-0.062 34.058,-0.042 51.09,-0.048 0.178,0 0.364,-0.076 0.756,-0.159 C 32.422,18.97 16.207,9.485 0,0 m 68.26,38.518 c -0.949,0.192 -1.877,0.241 -2.825,0.241 -12.132,0.007 -24.263,0 -36.395,0 h -3.065 c -11.404,0 -22.806,0.034 -34.203,-0.014 -4.549,-0.02 -6.495,-1.87 -6.454,-6.262 0.145,-14.392 0.22,-28.799 -0.041,-43.185 -0.082,-4.901 3.973,-7.224 8.118,-4.818 7.953,4.605 15.857,9.286 23.782,13.932 11.643,6.818 23.287,13.63 34.93,20.442 5.911,3.464 11.808,6.962 17.747,10.385 2.241,1.292 2.838,3.21 2.44,5.568 -0.371,2.254 -1.891,3.285 -4.034,3.711 M -167.311,-0.887 c 0,-1.464 -0.303,-1.842 -1.746,-0.989 -14.386,8.474 -28.813,16.901 -43.226,25.334 -2.743,1.609 -5.486,3.224 -8.228,4.839 0.062,0.145 0.124,0.296 0.186,0.44 17.101,0 34.201,-0.013 51.296,0.028 1.388,0 1.732,-0.515 1.725,-1.808 -0.034,-9.279 -0.028,-18.558 -0.007,-27.844 m 6.64,39.13 c -1.155,0.413 -2.392,0.543 -3.657,0.536 -12.2,-0.027 -24.401,-0.02 -36.608,-0.02 h -36.607 c -1.017,0 -2.021,-0.034 -3.031,-0.275 -2.337,-0.55 -3.987,-1.925 -4.207,-4.097 -0.226,-2.165 0.55,-3.959 2.612,-5.093 2.434,-1.333 4.791,-2.791 7.176,-4.192 16.991,-9.939 33.982,-19.878 50.973,-29.817 6.227,-3.65 12.44,-7.32 18.695,-10.922 3.581,-2.062 7.678,-0.048 7.685,3.781 0.034,15.341 0.007,30.689 0.014,46.03 0,2.138 -1.183,3.409 -3.045,4.069 M 0,0 c -0.124,-0.076 -0.254,-0.151 -0.378,-0.22 -4.468,-2.571 -4.468,-2.571 -4.468,2.509 0,8.117 0.014,16.228 -0.02,24.338 -0.007,1.334 0.096,2.152 1.828,2.145 17.032,-0.062 34.058,-0.042 51.09,-0.048 0.178,0 0.364,-0.076 0.756,-0.159 C 32.422,18.97 16.207,9.485 0,0 m 72.294,34.807 c -0.371,2.254 -1.891,3.285 -4.034,3.711 -0.949,0.192 -1.877,0.241 -2.825,0.241 -12.132,0.007 -24.263,0 -36.395,0 h -3.065 c -11.404,0 -22.806,0.034 -34.203,-0.014 -4.549,-0.02 -6.495,-1.87 -6.454,-6.262 0.145,-14.392 0.22,-28.799 -0.041,-43.185 -0.082,-4.901 3.973,-7.224 8.118,-4.818 7.953,4.605 15.857,9.286 23.782,13.932 11.643,6.818 23.287,13.63 34.93,20.442 5.911,3.464 11.808,6.962 17.747,10.385 2.241,1.292 2.838,3.21 2.44,5.568 M -167.311,-0.887 c 0,-1.464 -0.303,-1.842 -1.746,-0.989 -14.386,8.474 -28.813,16.901 -43.226,25.334 -2.743,1.609 -5.486,3.224 -8.228,4.839 0.062,0.145 0.124,0.296 0.186,0.44 17.101,0 34.201,-0.013 51.296,0.028 1.388,0 1.732,-0.515 1.725,-1.808 -0.034,-9.279 -0.028,-18.558 -0.007,-27.844 m 9.685,35.061 c 0,2.138 -1.183,3.409 -3.045,4.069 -1.155,0.413 -2.392,0.543 -3.657,0.536 -12.2,-0.027 -24.401,-0.02 -36.608,-0.02 h -36.607 c -1.017,0 -2.021,-0.034 -3.031,-0.275 -2.337,-0.55 -3.987,-1.925 -4.207,-4.097 -0.226,-2.165 0.55,-3.959 2.612,-5.093 2.434,-1.333 4.791,-2.791 7.176,-4.192 16.991,-9.939 33.982,-19.878 50.973,-29.817 6.227,-3.65 12.44,-7.32 18.695,-10.922 3.581,-2.062 7.678,-0.048 7.685,3.781 0.034,15.341 0.007,30.689 0.014,46.03 M 0,0 c -0.124,-0.076 -0.254,-0.151 -0.378,-0.22 -4.468,-2.571 -4.468,-2.571 -4.468,2.509 0,8.117 0.014,16.228 -0.02,24.338 -0.007,1.334 0.096,2.152 1.828,2.145 17.032,-0.062 34.058,-0.042 51.09,-0.048 0.178,0 0.364,-0.076 0.756,-0.159 C 32.422,18.97 16.207,9.485 0,0 m 72.294,34.807 c -0.371,2.254 -1.891,3.285 -4.034,3.711 -0.949,0.192 -1.877,0.241 -2.825,0.241 -12.132,0.007 -24.263,0 -36.395,0 h -3.065 c -11.404,0 -22.806,0.034 -34.203,-0.014 -4.549,-0.02 -6.495,-1.87 -6.454,-6.262 0.145,-14.392 0.22,-28.799 -0.041,-43.185 -0.082,-4.901 3.973,-7.224 8.118,-4.818 7.953,4.605 15.857,9.286 23.782,13.932 11.643,6.818 23.287,13.63 34.93,20.442 5.911,3.464 11.808,6.962 17.747,10.385 2.241,1.292 2.838,3.21 2.44,5.568 M -167.311,-0.887 c 0,-1.464 -0.303,-1.842 -1.746,-0.989 -14.386,8.474 -28.813,16.901 -43.226,25.334 -2.743,1.609 -5.486,3.224 -8.228,4.839 0.062,0.145 0.124,0.296 0.186,0.44 17.101,0 34.201,-0.013 51.296,0.028 1.388,0 1.732,-0.515 1.725,-1.808 -0.034,-9.279 -0.028,-18.558 -0.007,-27.844 m 9.685,35.061 c 0,2.138 -1.183,3.409 -3.045,4.069 -1.155,0.413 -2.392,0.543 -3.657,0.536 -12.2,-0.027 -24.401,-0.02 -36.608,-0.02 h -36.607 c -1.017,0 -2.021,-0.034 -3.031,-0.275 -2.337,-0.55 -3.987,-1.925 -4.207,-4.097 -0.226,-2.165 0.55,-3.959 2.612,-5.093 2.434,-1.333 4.791,-2.791 7.176,-4.192 16.991,-9.939 33.982,-19.878 50.973,-29.817 6.227,-3.65 12.44,-7.32 18.695,-10.922 3.581,-2.062 7.678,-0.048 7.685,3.781 0.034,15.341 0.007,30.689 0.014,46.03 M 0,0 c -0.124,-0.076 -0.254,-0.151 -0.378,-0.22 -4.468,-2.571 -4.468,-2.571 -4.468,2.509 0,8.117 0.014,16.228 -0.02,24.338 -0.007,1.334 0.096,2.152 1.828,2.145 17.032,-0.062 34.058,-0.042 51.09,-0.048 0.178,0 0.364,-0.076 0.756,-0.159 C 32.422,18.97 16.207,9.485 0,0 m 72.294,34.807 c -0.371,2.254 -1.891,3.285 -4.034,3.711 -0.949,0.192 -1.877,0.241 -2.825,0.241 -12.132,0.007 -24.263,0 -36.395,0 h -3.065 c -11.404,0 -22.806,0.034 -34.203,-0.014 -4.549,-0.02 -6.495,-1.87 -6.454,-6.262 0.145,-14.392 0.22,-28.799 -0.041,-43.185 -0.082,-4.901 3.973,-7.224 8.118,-4.818 7.953,4.605 15.857,9.286 23.782,13.932 11.643,6.818 23.287,13.63 34.93,20.442 5.911,3.464 11.808,6.962 17.747,10.385 2.241,1.292 2.838,3.21 2.44,5.568 M -167.311,-0.887 c 0,-1.464 -0.303,-1.842 -1.746,-0.989 -14.386,8.474 -28.813,16.901 -43.226,25.334 -2.743,1.609 -5.486,3.224 -8.228,4.839 0.062,0.145 0.124,0.296 0.186,0.44 17.101,0 34.201,-0.013 51.296,0.028 1.388,0 1.732,-0.515 1.725,-1.808 -0.034,-9.279 -0.028,-18.558 -0.007,-27.844 m 9.685,35.061 c 0,2.138 -1.183,3.409 -3.045,4.069 -1.155,0.413 -2.392,0.543 -3.657,0.536 -12.2,-0.027 -24.401,-0.02 -36.608,-0.02 h -36.607 c -1.017,0 -2.021,-0.034 -3.031,-0.275 -2.337,-0.55 -3.987,-1.925 -4.207,-4.097 -0.226,-2.165 0.55,-3.959 2.612,-5.093 2.434,-1.333 4.791,-2.791 7.176,-4.192 16.991,-9.939 33.982,-19.878 50.973,-29.817 6.227,-3.65 12.44,-7.32 18.695,-10.922 3.581,-2.062 7.678,-0.048 7.685,3.781 0.034,15.341 0.007,30.689 0.014,46.03 M 0,0 c -0.124,-0.076 -0.254,-0.151 -0.378,-0.22 -4.468,-2.571 -4.468,-2.571 -4.468,2.509 0,8.117 0.014,16.228 -0.02,24.338 -0.007,1.334 0.096,2.152 1.828,2.145 17.032,-0.062 34.058,-0.042 51.09,-0.048 0.178,0 0.364,-0.076 0.756,-0.159 C 32.422,18.97 16.207,9.485 0,0 m 72.294,34.807 c -0.371,2.254 -1.891,3.285 -4.034,3.711 -0.949,0.192 -1.877,0.241 -2.825,0.241 -12.132,0.007 -24.263,0 -36.395,0 h -3.065 c -11.404,0 -22.806,0.034 -34.203,-0.014 -4.549,-0.02 -6.495,-1.87 -6.454,-6.262 0.145,-14.392 0.22,-28.799 -0.041,-43.185 -0.082,-4.901 3.973,-7.224 8.118,-4.818 7.953,4.605 15.857,9.286 23.782,13.932 11.643,6.818 23.287,13.63 34.93,20.442 5.911,3.464 11.808,6.962 17.747,10.385 2.241,1.292 2.838,3.21 2.44,5.568 M -167.311,-0.887 c 0,-1.464 -0.303,-1.842 -1.746,-0.989 -14.386,8.474 -28.813,16.901 -43.226,25.334 -2.743,1.609 -5.486,3.224 -8.228,4.839 0.062,0.145 0.124,0.296 0.186,0.44 17.101,0 34.201,-0.013 51.296,0.028 1.388,0 1.732,-0.515 1.725,-1.808 -0.034,-9.279 -0.028,-18.558 -0.007,-27.844 m 9.685,35.061 c 0,2.138 -1.183,3.409 -3.045,4.069 -1.155,0.413 -2.392,0.543 -3.657,0.536 -12.2,-0.027 -24.401,-0.02 -36.608,-0.02 h -36.607 c -1.017,0 -2.021,-0.034 -3.031,-0.275 -2.337,-0.55 -3.987,-1.925 -4.207,-4.097 -0.226,-2.165 0.55,-3.959 2.612,-5.093 2.434,-1.333 4.791,-2.791 7.176,-4.192 16.991,-9.939 33.982,-19.878 50.973,-29.817 6.227,-3.65 12.44,-7.32 18.695,-10.922 3.581,-2.062 7.678,-0.048 7.685,3.781 0.034,15.341 0.007,30.689 0.014,46.03 M 0,0 c -0.124,-0.076 -0.254,-0.151 -0.378,-0.22 -4.468,-2.571 -4.468,-2.571 -4.468,2.509 0,8.117 0.014,16.228 -0.02,24.338 -0.007,1.334 0.096,2.152 1.828,2.145 17.032,-0.062 34.058,-0.042 51.09,-0.048 0.178,0 0.364,-0.076 0.756,-0.159 C 32.422,18.97 16.207,9.485 0,0 m 72.294,34.807 c -0.371,2.254 -1.891,3.285 -4.034,3.711 -0.949,0.192 -1.877,0.241 -2.825,0.241 -12.132,0.007 -24.263,0 -36.395,0 h -3.065 c -11.404,0 -22.806,0.034 -34.203,-0.014 -4.549,-0.02 -6.495,-1.87 -6.454,-6.262 0.145,-14.392 0.22,-28.799 -0.041,-43.185 -0.082,-4.901 3.973,-7.224 8.118,-4.818 7.953,4.605 15.857,9.286 23.782,13.932 11.643,6.818 23.287,13.63 34.93,20.442 5.911,3.464 11.808,6.962 17.747,10.385 2.241,1.292 2.838,3.21 2.44,5.568 M -167.311,-0.887 c 0,-1.464 -0.303,-1.842 -1.746,-0.989 -14.386,8.474 -28.813,16.901 -43.226,25.334 -2.743,1.609 -5.486,3.224 -8.228,4.839 0.062,0.145 0.124,0.296 0.186,0.44 17.101,0 34.201,-0.013 51.296,0.028 1.388,0 1.732,-0.515 1.725,-1.808 -0.034,-9.279 -0.028,-18.558 -0.007,-27.844 m 9.685,35.061 c 0,2.138 -1.183,3.409 -3.045,4.069 -1.155,0.413 -2.392,0.543 -3.657,0.536 -12.2,-0.027 -24.401,-0.02 -36.608,-0.02 h -36.607 c -1.017,0 -2.021,-0.034 -3.031,-0.275 -2.337,-0.55 -3.987,-1.925 -4.207,-4.097 -0.226,-2.165 0.55,-3.959 2.612,-5.093 2.434,-1.333 4.791,-2.791 7.176,-4.192 16.991,-9.939 33.982,-19.878 50.973,-29.817 6.227,-3.65 12.44,-7.32 18.695,-10.922 3.581,-2.062 7.678,-0.048 7.685,3.781 0.034,15.341 0.007,30.689 0.014,46.03 M 0,0 c -0.124,-0.076 -0.254,-0.151 -0.378,-0.22 -4.468,-2.571 -4.468,-2.571 -4.468,2.509 0,8.117 0.014,16.228 -0.02,24.338 -0.007,1.334 0.096,2.152 1.828,2.145 17.032,-0.062 34.058,-0.042 51.09,-0.048 0.178,0 0.364,-0.076 0.756,-0.159 C 32.422,18.97 16.207,9.485 0,0 m 72.294,34.807 c -0.371,2.254 -1.891,3.285 -4.034,3.711 -0.949,0.192 -1.877,0.241 -2.825,0.241 -12.132,0.007 -24.263,0 -36.395,0 h -3.065 c -11.404,0 -22.806,0.034 -34.203,-0.014 -4.549,-0.02 -6.495,-1.87 -6.454,-6.262 0.145,-14.392 0.22,-28.799 -0.041,-43.185 -0.082,-4.901 3.973,-7.224 8.118,-4.818 7.953,4.605 15.857,9.286 23.782,13.932 11.643,6.818 23.287,13.63 34.93,20.442 5.911,3.464 11.808,6.962 17.747,10.385 2.241,1.292 2.838,3.21 2.44,5.568 M -167.311,-0.887 c 0,-1.464 -0.303,-1.842 -1.746,-0.989 -14.386,8.474 -28.813,16.901 -43.226,25.334 -2.743,1.609 -5.486,3.224 -8.228,4.839 0.062,0.145 0.124,0.296 0.186,0.44 17.101,0 34.201,-0.013 51.296,0.028 1.388,0 1.732,-0.515 1.725,-1.808 -0.034,-9.279 -0.028,-18.558 -0.007,-27.844 m 9.685,35.061 c 0,2.138 -1.183,3.409 -3.045,4.069 -1.155,0.413 -2.392,0.543 -3.657,0.536 -12.2,-0.027 -24.401,-0.02 -36.608,-0.02 h -36.607 c -1.017,0 -2.021,-0.034 -3.031,-0.275 -2.337,-0.55 -3.987,-1.925 -4.207,-4.097 -0.226,-2.165 0.55,-3.959 2.612,-5.093 2.434,-1.333 4.791,-2.791 7.176,-4.192 16.991,-9.939 33.982,-19.878 50.973,-29.817 6.227,-3.65 12.44,-7.32 18.695,-10.922 3.581,-2.062 7.678,-0.048 7.685,3.781 0.034,15.341 0.007,30.689 0.014,46.03 M 0,0 c -0.124,-0.076 -0.254,-0.151 -0.378,-0.22 -4.468,-2.571 -4.468,-2.571 -4.468,2.509 0,8.117 0.014,16.228 -0.02,24.338 -0.007,1.334 0.096,2.152 1.828,2.145 17.032,-0.062 34.058,-0.042 51.09,-0.048 0.178,0 0.364,-0.076 0.756,-0.159 C 32.422,18.97 16.207,9.485 0,0 m 72.294,34.807 c -0.371,2.254 -1.891,3.285 -4.034,3.711 -0.949,0.192 -1.877,0.241 -2.825,0.241 -12.132,0.007 -24.263,0 -36.395,0 h -3.065 c -11.404,0 -22.806,0.034 -34.203,-0.014 -4.549,-0.02 -6.495,-1.87 -6.454,-6.262 0.145,-14.392 0.22,-28.799 -0.041,-43.185 -0.082,-4.901 3.973,-7.224 8.118,-4.818 7.953,4.605 15.857,9.286 23.782,13.932 11.643,6.818 23.287,13.63 34.93,20.442 5.911,3.464 11.808,6.962 17.747,10.385 2.241,1.292 2.838,3.21 2.44,5.568 M -167.311,-0.887 c 0,-1.464 -0.303,-1.842 -1.746,-0.989 -14.386,8.474 -28.813,16.901 -43.226,25.334 -2.743,1.609 -5.486,3.224 -8.228,4.839 0.062,0.145 0.124,0.296 0.186,0.44 17.101,0 34.201,-0.013 51.296,0.028 1.388,0 1.732,-0.515 1.725,-1.808 -0.034,-9.279 -0.028,-18.558 -0.007,-27.844 m 9.685,35.061 c 0,2.138 -1.183,3.409 -3.045,4.069 -1.155,0.413 -2.392,0.543 -3.657,0.536 -12.2,-0.027 -24.401,-0.02 -36.608,-0.02 h -36.607 c -1.017,0 -2.021,-0.034 -3.031,-0.275 -2.337,-0.55 -3.987,-1.925 -4.207,-4.097 -0.226,-2.165 0.55,-3.959 2.612,-5.093 2.434,-1.333 4.791,-2.791 7.176,-4.192 16.991,-9.939 33.982,-19.878 50.973,-29.817 6.227,-3.65 12.44,-7.32 18.695,-10.922 3.581,-2.062 7.678,-0.048 7.685,3.781 0.034,15.341 0.007,30.689 0.014,46.03 M 0,0 c -0.124,-0.076 -0.254,-0.151 -0.378,-0.22 -4.468,-2.571 -4.468,-2.571 -4.468,2.509 0,8.117 0.014,16.228 -0.02,24.338 -0.007,1.334 0.096,2.152 1.828,2.145 17.032,-0.062 34.058,-0.042 51.09,-0.048 0.178,0 0.364,-0.076 0.756,-0.159 C 32.422,18.97 16.207,9.485 0,0 m 72.294,34.807 c -0.371,2.254 -1.891,3.285 -4.034,3.711 -0.949,0.192 -1.877,0.241 -2.825,0.241 -12.132,0.007 -24.263,0 -36.395,0 h -3.065 c -11.404,0 -22.806,0.034 -34.203,-0.014 -4.549,-0.02 -6.495,-1.87 -6.454,-6.262 0.145,-14.392 0.22,-28.799 -0.041,-43.185 -0.082,-4.901 3.973,-7.224 8.118,-4.818 7.953,4.605 15.857,9.286 23.782,13.932 11.643,6.818 23.287,13.63 34.93,20.442 5.911,3.464 11.808,6.962 17.747,10.385 2.241,1.292 2.838,3.21 2.44,5.568 M -167.311,-0.887 c 0,-1.464 -0.303,-1.842 -1.746,-0.989 -14.386,8.474 -28.813,16.901 -43.226,25.334 -2.743,1.609 -5.486,3.224 -8.228,4.839 0.062,0.145 0.124,0.296 0.186,0.44 17.101,0 34.201,-0.013 51.296,0.028 1.388,0 1.732,-0.515 1.725,-1.808 -0.034,-9.279 -0.028,-18.558 -0.007,-27.844 m 9.685,35.061 c 0,2.138 -1.183,3.409 -3.045,4.069 -1.155,0.413 -2.392,0.543 -3.657,0.536 -12.2,-0.027 -24.401,-0.02 -36.608,-0.02 h -36.607 c -1.017,0 -2.021,-0.034 -3.031,-0.275 -2.337,-0.55 -3.987,-1.925 -4.207,-4.097 -0.226,-2.165 0.55,-3.959 2.612,-5.093 2.434,-1.333 4.791,-2.791 7.176,-4.192 16.991,-9.939 33.982,-19.878 50.973,-29.817 6.227,-3.65 12.44,-7.32 18.695,-10.922 3.581,-2.062 7.678,-0.048 7.685,3.781 0.034,15.341 0.007,30.689 0.014,46.03 M 0,0 c -0.124,-0.076 -0.254,-0.151 -0.378,-0.22 -4.468,-2.571 -4.468,-2.571 -4.468,2.509 0,8.117 0.014,16.228 -0.02,24.338 -0.007,1.334 0.096,2.152 1.828,2.145 17.032,-0.062 34.058,-0.042 51.09,-0.048 0.178,0 0.364,-0.076 0.756,-0.159 C 32.422,18.97 16.207,9.485 0,0 m 72.294,34.807 c -0.371,2.254 -1.891,3.285 -4.034,3.711 -0.949,0.192 -1.877,0.241 -2.825,0.241 -12.132,0.007 -24.263,0 -36.395,0 h -3.065 c -11.404,0 -22.806,0.034 -34.203,-0.014 -4.549,-0.02 -6.495,-1.87 -6.454,-6.262 0.145,-14.392 0.22,-28.799 -0.041,-43.185 -0.082,-4.901 3.973,-7.224 8.118,-4.818 7.953,4.605 15.857,9.286 23.782,13.932 11.643,6.818 23.287,13.63 34.93,20.442 5.911,3.464 11.808,6.962 17.747,10.385 2.241,1.292 2.838,3.21 2.44,5.568"
             style="fill:#93348d;fill-opacity:1;fill-rule:nonzero;stroke:none;stroke-opacity:1"
             id="path4271" />
        </g>
        <g
           id="g4273"
           transform="translate(227.1138,355.2017)"
           style="stroke:none;stroke-opacity:1;fill:#93348d;fill-opacity:1">
          <path
             d="m 0,0 c 0,-1.464 -0.303,-1.842 -1.746,-0.99 -14.386,8.475 -28.813,16.902 -43.226,25.335 -2.743,1.609 -5.486,3.224 -8.228,4.839 0.062,0.145 0.124,0.296 0.186,0.44 17.101,0 34.202,-0.014 51.296,0.028 1.388,0 1.732,-0.516 1.725,-1.808 C -0.027,18.565 -0.021,9.286 0,0 m 9.685,35.061 c 0,2.138 -1.183,3.409 -3.045,4.069 -1.155,0.412 -2.392,0.543 -3.657,0.536 -12.2,-0.027 -24.4,-0.02 -36.608,-0.02 h -36.607 c -1.017,0 -2.021,-0.035 -3.031,-0.275 -2.337,-0.55 -3.987,-1.925 -4.207,-4.097 -0.226,-2.165 0.55,-3.959 2.612,-5.093 2.434,-1.333 4.791,-2.791 7.176,-4.193 16.991,-9.939 33.982,-19.878 50.973,-29.817 6.227,-3.649 12.44,-7.319 18.695,-10.921 3.581,-2.062 7.678,-0.048 7.685,3.78 0.034,15.342 0.007,30.69 0.014,46.031"
             style="fill:#93348d;fill-opacity:1;fill-rule:nonzero;stroke:none;stroke-opacity:1"
             id="path4275" />
        </g>
        <g
           id="g4277"
           transform="translate(394.4248,356.0884)"
           style="stroke:none;stroke-opacity:1;fill:#93348d;fill-opacity:1">
          <path
             d="m 0,0 c -0.124,-0.076 -0.254,-0.151 -0.378,-0.22 -4.468,-2.571 -4.468,-2.571 -4.468,2.509 0,8.117 0.014,16.228 -0.02,24.338 -0.007,1.334 0.096,2.152 1.828,2.145 17.032,-0.062 34.058,-0.042 51.09,-0.048 0.178,0 0.364,-0.076 0.756,-0.159 C 32.422,18.97 16.207,9.485 0,0 m 72.294,34.807 c -0.371,2.254 -1.891,3.285 -4.034,3.711 -0.949,0.192 -1.877,0.241 -2.825,0.241 -12.132,0.007 -24.263,0 -36.395,0 h -3.065 c -11.404,0 -22.806,0.034 -34.203,-0.014 -4.549,-0.02 -6.495,-1.87 -6.454,-6.262 0.145,-14.392 0.22,-28.799 -0.041,-43.185 -0.082,-4.901 3.973,-7.224 8.118,-4.818 7.953,4.605 15.857,9.286 23.782,13.932 11.643,6.818 23.287,13.63 34.93,20.442 5.911,3.464 11.808,6.962 17.747,10.385 2.241,1.292 2.838,3.21 2.44,5.568"
             style="fill:#93348d;fill-opacity:1;fill-rule:nonzero;stroke:none;stroke-opacity:1"
             id="path4279" />
        </g>
        <g
           id="g4281"
           transform="translate(227.1138,355.2017)"
           style="stroke:none;stroke-opacity:1;fill:#93348d;fill-opacity:1">
          <path
             d="m 0,0 c 0,-1.464 -0.303,-1.842 -1.746,-0.99 -14.386,8.475 -28.813,16.902 -43.226,25.335 -2.743,1.609 -5.486,3.224 -8.228,4.839 0.062,0.145 0.124,0.296 0.186,0.44 17.101,0 34.202,-0.014 51.296,0.028 1.388,0 1.732,-0.516 1.725,-1.808 C -0.027,18.565 -0.021,9.286 0,0 m 9.685,35.061 c 0,2.138 -1.183,3.409 -3.045,4.069 -1.155,0.412 -2.392,0.543 -3.657,0.536 -12.2,-0.027 -24.4,-0.02 -36.608,-0.02 h -36.607 c -1.017,0 -2.021,-0.035 -3.031,-0.275 -2.337,-0.55 -3.987,-1.925 -4.207,-4.097 -0.226,-2.165 0.55,-3.959 2.612,-5.093 2.434,-1.333 4.791,-2.791 7.176,-4.193 16.991,-9.939 33.982,-19.878 50.973,-29.817 6.227,-3.649 12.44,-7.319 18.695,-10.921 3.581,-2.062 7.678,-0.048 7.685,3.78 0.034,15.342 0.007,30.69 0.014,46.031"
             style="fill:#93348d;fill-opacity:1;fill-rule:nonzero;stroke:none;stroke-opacity:1"
             id="path4283" />
        </g>
        <g
           id="g4285"
           transform="translate(394.4248,356.0884)"
           style="stroke:none;stroke-opacity:1;fill:#93348d;fill-opacity:1">
          <path
             d="m 0,0 c -0.124,-0.076 -0.254,-0.151 -0.378,-0.22 -4.468,-2.571 -4.468,-2.571 -4.468,2.509 0,8.117 0.014,16.228 -0.02,24.338 -0.007,1.334 0.096,2.152 1.828,2.145 17.032,-0.062 34.058,-0.042 51.09,-0.048 0.178,0 0.364,-0.076 0.756,-0.159 C 32.422,18.97 16.207,9.485 0,0 m 72.294,34.807 c -0.371,2.254 -1.891,3.285 -4.034,3.711 -0.949,0.192 -1.877,0.241 -2.825,0.241 -12.132,0.007 -24.263,0 -36.395,0 h -3.065 c -11.404,0 -22.806,0.034 -34.203,-0.014 -4.549,-0.02 -6.495,-1.87 -6.454,-6.262 0.145,-14.392 0.22,-28.799 -0.041,-43.185 -0.082,-4.901 3.973,-7.224 8.118,-4.818 7.953,4.605 15.857,9.286 23.782,13.932 11.643,6.818 23.287,13.63 34.93,20.442 5.911,3.464 11.808,6.962 17.747,10.385 2.241,1.292 2.838,3.21 2.44,5.568"
             style="fill:#93348d;fill-opacity:1;fill-rule:nonzero;stroke:none;stroke-opacity:1"
             id="path4287" />
        </g>
      </g>
    </g>
  </g>
</svg>
