<?xml version="1.0" encoding="UTF-8" standalone="no"?>
<!-- Created with Inkscape (http://www.inkscape.org/) -->

<svg
   version="1.1"
   id="svg5955"
   width="816"
   height="240"
   viewBox="0 0 816 240"
   sodipodi:docname="hackbu_text_93348d.svg"
   inkscape:version="1.2.2 (b0a8486541, 2022-12-01)"
   xmlns:inkscape="http://www.inkscape.org/namespaces/inkscape"
   xmlns:sodipodi="http://sodipodi.sourceforge.net/DTD/sodipodi-0.dtd"
   xmlns="http://www.w3.org/2000/svg"
   xmlns:svg="http://www.w3.org/2000/svg">
  <defs
     id="defs5959">
    <clipPath
       clipPathUnits="userSpaceOnUse"
       id="clipPath5971">
      <path
         d="M 0,180 H 612 V 0 H 0 Z"
         id="path5969" />
    </clipPath>
  </defs>
  <sodipodi:namedview
     id="namedview5957"
     pagecolor="#ffffff"
     bordercolor="#000000"
     borderopacity="0.25"
     inkscape:showpageshadow="2"
     inkscape:pageopacity="0.0"
     inkscape:pagecheckerboard="0"
     inkscape:deskcolor="#d1d1d1"
     showgrid="false"
     inkscape:zoom="0.83946078"
     inkscape:cx="210.25401"
     inkscape:cy="39.310949"
     inkscape:window-width="900"
     inkscape:window-height="1051"
     inkscape:window-x="0"
     inkscape:window-y="25"
     inkscape:window-maximized="1"
     inkscape:current-layer="g5963">
    <inkscape:page
       x="0"
       y="0"
       id="page5961"
       width="816"
       height="240" />
  </sodipodi:namedview>
  <g
     id="g5963"
     inkscape:groupmode="layer"
     inkscape:label="Page 1"
     transform="matrix(1.3333333,0,0,-1.3333333,0,240)"
     style="fill:#93348d;fill-opacity:1">
    <g
       id="g5965"
       style="fill:#93348d;fill-opacity:1">
      <g
         id="g5967"
         clip-path="url(#clipPath5971)"
         style="fill:#93348d;fill-opacity:1">
        <g
           id="g5973"
           transform="translate(288.2686,65.4629)"
           style="fill:#93348d;fill-opacity:1">
          <path
             d="m 0,0 c -8.239,-8.598 -17.194,-12.538 -27.94,-12.538 -19.702,0 -35.105,16.477 -35.105,37.254 v 0.358 c 0,20.777 15.403,37.255 34.746,37.255 13.612,0 21.493,-6.09 27.583,-11.822 l 0.358,-0.358 3.224,3.582 -0.359,0.359 C -5.731,61.254 -13.97,66.269 -28.299,66.269 -50.508,66.269 -68.061,48 -68.061,24.716 v -0.358 c 0,-23.284 17.553,-41.552 39.762,-41.552 12.179,0 22.209,4.298 31.523,13.969 l 0.358,0.359 z"
             style="fill:#93348d;fill-opacity:1;fill-rule:nonzero;stroke:none"
             id="path5975" />
        </g>
        <g
           id="g5977"
           transform="translate(393.9414,130.2988)"
           style="fill:#93348d;fill-opacity:1">
          <path
             d="M 0,0 H -6.448 L -59.464,-52.657 V 0 h -4.656 v -80.598 h 4.656 v 22.209 l 20.776,20.419 33.672,-42.269 v -0.359 h 6.09 l -36.179,45.851 z"
             style="fill:#93348d;fill-opacity:1;fill-rule:nonzero;stroke:none"
             id="path5979" />
        </g>
        <g
           id="g5981"
           transform="translate(598.1221,130.2988)"
           style="fill:#93348d;fill-opacity:1">
          <path
             d="m 0,0 v -45.852 c 0,-20.059 -10.03,-31.522 -27.94,-31.522 -17.553,0 -28.299,11.821 -28.299,31.881 V 0 h -4.657 v -45.852 c 0,-22.567 12.179,-36.178 32.956,-36.178 20.418,0 32.955,13.611 32.955,36.537 L 5.015,0 Z"
             style="fill:#93348d;fill-opacity:1;fill-rule:nonzero;stroke:none"
             id="path5983" />
        </g>
        <path
           d="m 67.251,130.299 h 4.657 V 49.701 h -4.657 z"
           style="fill:#93348d;fill-opacity:1;fill-rule:nonzero;stroke:none"
           id="path5985" />
        <path
           d="M 8.863,130.299 H 13.52 V 49.701 H 8.863 Z"
           style="fill:#93348d;fill-opacity:1;fill-rule:nonzero;stroke:none"
           id="path5987" />
        <g
           id="g5989"
           transform="translate(152.5063,131.0151)"
           style="fill:#93348d;fill-opacity:1">
          <path
             d="m 0,0 h -4.299 l -38.328,-81.314 h 5.015 l 35.463,75.225 22.567,-48.359 1.433,-2.508 11.104,-24 v -0.358 h 5.374 L 0,-0.358 Z"
             style="fill:#93348d;fill-opacity:1;fill-rule:nonzero;stroke:none"
             id="path5991" />
        </g>
        <g
           id="g5993"
           transform="translate(479.5537,90.8955)"
           style="fill:#93348d;fill-opacity:1">
          <path
             d="m 0,0 c 8.239,2.866 13.254,10.03 13.254,18.985 v 0.358 c 0,5.374 -1.791,9.672 -5.373,13.254 -4.657,4.657 -12.18,7.165 -21.135,7.165 h -33.313 v -4.299 h 32.955 c 13.254,0 21.851,-6.089 21.851,-16.12 V 18.985 C 8.239,10.747 2.865,2.149 -12.537,2.149 h -34.03 v -4.298 h 35.463 c 14.686,0 23.641,-6.448 23.641,-16.836 v -0.359 c 0,-10.746 -8.955,-16.836 -24,-16.836 h -35.104 v -4.298 h 35.104 c 18.269,0 29.016,7.88 29.016,21.493 v 0.358 C 17.91,-9.672 11.104,-2.508 0,0"
             style="fill:#93348d;fill-opacity:1;fill-rule:nonzero;stroke:none"
             id="path5995" />
        </g>
      </g>
    </g>
  </g>
</svg>
