<svg id="Layer_1" data-name="Layer 1" xmlns="http://www.w3.org/2000/svg" viewBox="0 0 554.6 582.26"><defs><style>.cls-1{fill:#e9b700;}</style></defs><path class="cls-1" d="M466.72,257.1c-.37-2.25-1.89-3.28-4-3.71a14.08,14.08,0,0,0-2.82-.24H420.4c-11.4,0-22.81,0-34.2,0-4.55,0-6.5,1.87-6.46,6.26.15,14.39.22,28.8,0,43.18-.08,4.9,4,7.23,8.12,4.82,7.95-4.6,15.86-9.28,23.78-13.93l34.93-20.44c5.91-3.47,11.81-7,17.75-10.39C466.52,261.38,467.12,259.46,466.72,257.1Zm-72.3,34.81-.37.22c-4.47,2.57-4.47,2.57-4.47-2.51,0-8.11,0-16.23,0-24.34,0-1.33.09-2.15,1.83-2.14,17,.06,34.05,0,51.09.05a4.23,4.23,0,0,1,.75.16ZM236.8,257.74a4.06,4.06,0,0,0-3.05-4.07,10.84,10.84,0,0,0-3.65-.54q-18.3,0-36.61,0H156.88a12.91,12.91,0,0,0-3,.28c-2.34.55-4,1.92-4.21,4.09a4.84,4.84,0,0,0,2.62,5.1c2.43,1.33,4.79,2.79,7.17,4.19l51,29.82c6.23,3.65,12.45,7.32,18.7,10.92,3.58,2.06,7.68.05,7.68-3.78C236.82,288.43,236.79,273.08,236.8,257.74Zm-9.69,35.06c0,1.46-.3,1.84-1.74,1q-21.59-12.72-43.23-25.34l-8.23-4.84c.07-.14.13-.29.19-.44q25.65,0,51.3,0c1.38,0,1.73.51,1.72,1.8Q227.08,278.87,227.11,292.8Zm239.61-35.7c-.37-2.25-1.89-3.28-4-3.71a14.08,14.08,0,0,0-2.82-.24H420.4c-11.4,0-22.81,0-34.2,0-4.55,0-6.5,1.87-6.46,6.26.15,14.39.22,28.8,0,43.18-.08,4.9,4,7.23,8.12,4.82,7.95-4.6,15.86-9.28,23.78-13.93l34.93-20.44c5.91-3.47,11.81-7,17.75-10.39C466.52,261.38,467.12,259.46,466.72,257.1Zm-72.3,34.81-.37.22c-4.47,2.57-4.47,2.57-4.47-2.51,0-8.11,0-16.23,0-24.34,0-1.33.09-2.15,1.83-2.14,17,.06,34.05,0,51.09.05a4.23,4.23,0,0,1,.75.16ZM236.8,257.74a4.06,4.06,0,0,0-3.05-4.07,10.84,10.84,0,0,0-3.65-.54q-18.3,0-36.61,0H156.88a12.91,12.91,0,0,0-3,.28c-2.34.55-4,1.92-4.21,4.09a4.84,4.84,0,0,0,2.62,5.1c2.43,1.33,4.79,2.79,7.17,4.19l51,29.82c6.23,3.65,12.45,7.32,18.7,10.92,3.58,2.06,7.68.05,7.68-3.78C236.82,288.43,236.79,273.08,236.8,257.74Zm-9.69,35.06c0,1.46-.3,1.84-1.74,1q-21.59-12.72-43.23-25.34l-8.23-4.84c.07-.14.13-.29.19-.44q25.65,0,51.3,0c1.38,0,1.73.51,1.72,1.8Q227.08,278.87,227.11,292.8Zm239.61-35.7c-.37-2.25-1.89-3.28-4-3.71a14.08,14.08,0,0,0-2.82-.24H420.4c-11.4,0-22.81,0-34.2,0-4.55,0-6.5,1.87-6.46,6.26.15,14.39.22,28.8,0,43.18-.08,4.9,4,7.23,8.12,4.82,7.95-4.6,15.86-9.28,23.78-13.93l34.93-20.44c5.91-3.47,11.81-7,17.75-10.39C466.52,261.38,467.12,259.46,466.72,257.1Zm-72.3,34.81-.37.22c-4.47,2.57-4.47,2.57-4.47-2.51,0-8.11,0-16.23,0-24.34,0-1.33.09-2.15,1.83-2.14,17,.06,34.05,0,51.09.05a4.23,4.23,0,0,1,.75.16ZM236.8,257.74a4.06,4.06,0,0,0-3.05-4.07,10.84,10.84,0,0,0-3.65-.54q-18.3,0-36.61,0H156.88a12.91,12.91,0,0,0-3,.28c-2.34.55-4,1.92-4.21,4.09a4.84,4.84,0,0,0,2.62,5.1c2.43,1.33,4.79,2.79,7.17,4.19l51,29.82c6.23,3.65,12.45,7.32,18.7,10.92,3.58,2.06,7.68.05,7.68-3.78C236.82,288.43,236.79,273.08,236.8,257.74Zm-9.69,35.06c0,1.46-.3,1.84-1.74,1q-21.59-12.72-43.23-25.34l-8.23-4.84c.07-.14.13-.29.19-.44q25.65,0,51.3,0c1.38,0,1.73.51,1.72,1.8Q227.08,278.87,227.11,292.8Zm239.61-35.7c-.37-2.25-1.89-3.28-4-3.71a14.08,14.08,0,0,0-2.82-.24H420.4c-11.4,0-22.81,0-34.2,0-4.55,0-6.5,1.87-6.46,6.26.15,14.39.22,28.8,0,43.18-.08,4.9,4,7.23,8.12,4.82,7.95-4.6,15.86-9.28,23.78-13.93l34.93-20.44c5.91-3.47,11.81-7,17.75-10.39C466.52,261.38,467.12,259.46,466.72,257.1Zm-72.3,34.81-.37.22c-4.47,2.57-4.47,2.57-4.47-2.51,0-8.11,0-16.23,0-24.34,0-1.33.09-2.15,1.83-2.14,17,.06,34.05,0,51.09.05a4.23,4.23,0,0,1,.75.16ZM236.8,257.74a4.06,4.06,0,0,0-3.05-4.07,10.84,10.84,0,0,0-3.65-.54q-18.3,0-36.61,0H156.88a12.91,12.91,0,0,0-3,.28c-2.34.55-4,1.92-4.21,4.09a4.84,4.84,0,0,0,2.62,5.1c2.43,1.33,4.79,2.79,7.17,4.19l51,29.82c6.23,3.65,12.45,7.32,18.7,10.92,3.58,2.06,7.68.05,7.68-3.78C236.82,288.43,236.79,273.08,236.8,257.74Zm-9.69,35.06c0,1.46-.3,1.84-1.74,1q-21.59-12.72-43.23-25.34l-8.23-4.84c.07-.14.13-.29.19-.44q25.65,0,51.3,0c1.38,0,1.73.51,1.72,1.8Q227.08,278.87,227.11,292.8Zm239.61-35.7c-.37-2.25-1.89-3.28-4-3.71a14.08,14.08,0,0,0-2.82-.24H420.4c-11.4,0-22.81,0-34.2,0-4.55,0-6.5,1.87-6.46,6.26.15,14.39.22,28.8,0,43.18-.08,4.9,4,7.23,8.12,4.82,7.95-4.6,15.86-9.28,23.78-13.93l34.93-20.44c5.91-3.47,11.81-7,17.75-10.39C466.52,261.38,467.12,259.46,466.72,257.1Zm-72.3,34.81-.37.22c-4.47,2.57-4.47,2.57-4.47-2.51,0-8.11,0-16.23,0-24.34,0-1.33.09-2.15,1.83-2.14,17,.06,34.05,0,51.09.05a4.23,4.23,0,0,1,.75.16ZM236.8,257.74a4.06,4.06,0,0,0-3.05-4.07,10.84,10.84,0,0,0-3.65-.54q-18.3,0-36.61,0H156.88a12.91,12.91,0,0,0-3,.28c-2.34.55-4,1.92-4.21,4.09a4.84,4.84,0,0,0,2.62,5.1c2.43,1.33,4.79,2.79,7.17,4.19l51,29.82c6.23,3.65,12.45,7.32,18.7,10.92,3.58,2.06,7.68.05,7.68-3.78C236.82,288.43,236.79,273.08,236.8,257.74Zm-9.69,35.06c0,1.46-.3,1.84-1.74,1q-21.59-12.72-43.23-25.34l-8.23-4.84c.07-.14.13-.29.19-.44q25.65,0,51.3,0c1.38,0,1.73.51,1.72,1.8Q227.08,278.87,227.11,292.8Zm239.61-35.7c-.37-2.25-1.89-3.28-4-3.71a14.08,14.08,0,0,0-2.82-.24H420.4c-11.4,0-22.81,0-34.2,0-4.55,0-6.5,1.87-6.46,6.26.15,14.39.22,28.8,0,43.18-.08,4.9,4,7.23,8.12,4.82,7.95-4.6,15.86-9.28,23.78-13.93l34.93-20.44c5.91-3.47,11.81-7,17.75-10.39C466.52,261.38,467.12,259.46,466.72,257.1Zm-72.3,34.81-.37.22c-4.47,2.57-4.47,2.57-4.47-2.51,0-8.11,0-16.23,0-24.34,0-1.33.09-2.15,1.83-2.14,17,.06,34.05,0,51.09.05a4.23,4.23,0,0,1,.75.16ZM236.8,257.74a4.06,4.06,0,0,0-3.05-4.07,10.84,10.84,0,0,0-3.65-.54q-18.3,0-36.61,0H156.88a12.91,12.91,0,0,0-3,.28c-2.34.55-4,1.92-4.21,4.09a4.84,4.84,0,0,0,2.62,5.1c2.43,1.33,4.79,2.79,7.17,4.19l51,29.82c6.23,3.65,12.45,7.32,18.7,10.92,3.58,2.06,7.68.05,7.68-3.78C236.82,288.43,236.79,273.08,236.8,257.74Zm-9.69,35.06c0,1.46-.3,1.84-1.74,1q-21.59-12.72-43.23-25.34l-8.23-4.84c.07-.14.13-.29.19-.44q25.65,0,51.3,0c1.38,0,1.73.51,1.72,1.8Q227.08,278.87,227.11,292.8Zm239.61-35.7c-.37-2.25-1.89-3.28-4-3.71a14.08,14.08,0,0,0-2.82-.24H420.4c-11.4,0-22.81,0-34.2,0-4.55,0-6.5,1.87-6.46,6.26.15,14.39.22,28.8,0,43.18-.08,4.9,4,7.23,8.12,4.82,7.95-4.6,15.86-9.28,23.78-13.93l34.93-20.44c5.91-3.47,11.81-7,17.75-10.39C466.52,261.38,467.12,259.46,466.72,257.1Zm-72.3,34.81-.37.22c-4.47,2.57-4.47,2.57-4.47-2.51,0-8.11,0-16.23,0-24.34,0-1.33.09-2.15,1.83-2.14,17,.06,34.05,0,51.09.05a4.23,4.23,0,0,1,.75.16ZM236.8,257.74a4.06,4.06,0,0,0-3.05-4.07,10.84,10.84,0,0,0-3.65-.54q-18.3,0-36.61,0H156.88a12.91,12.91,0,0,0-3,.28c-2.34.55-4,1.92-4.21,4.09a4.84,4.84,0,0,0,2.62,5.1c2.43,1.33,4.79,2.79,7.17,4.19l51,29.82c6.23,3.65,12.45,7.32,18.7,10.92,3.58,2.06,7.68.05,7.68-3.78C236.82,288.43,236.79,273.08,236.8,257.74Zm-9.69,35.06c0,1.46-.3,1.84-1.74,1q-21.59-12.72-43.23-25.34l-8.23-4.84c.07-.14.13-.29.19-.44q25.65,0,51.3,0c1.38,0,1.73.51,1.72,1.8Q227.08,278.87,227.11,292.8Zm239.61-35.7c-.37-2.25-1.89-3.28-4-3.71a14.08,14.08,0,0,0-2.82-.24H420.4c-11.4,0-22.81,0-34.2,0-4.55,0-6.5,1.87-6.46,6.26.15,14.39.22,28.8,0,43.18-.08,4.9,4,7.23,8.12,4.82,7.95-4.6,15.86-9.28,23.78-13.93l34.93-20.44c5.91-3.47,11.81-7,17.75-10.39C466.52,261.38,467.12,259.46,466.72,257.1Zm-72.3,34.81-.37.22c-4.47,2.57-4.47,2.57-4.47-2.51,0-8.11,0-16.23,0-24.34,0-1.33.09-2.15,1.83-2.14,17,.06,34.05,0,51.09.05a4.23,4.23,0,0,1,.75.16ZM236.8,257.74a4.06,4.06,0,0,0-3.05-4.07,10.84,10.84,0,0,0-3.65-.54q-18.3,0-36.61,0H156.88a12.91,12.91,0,0,0-3,.28c-2.34.55-4,1.92-4.21,4.09a4.84,4.84,0,0,0,2.62,5.1c2.43,1.33,4.79,2.79,7.17,4.19l51,29.82c6.23,3.65,12.45,7.32,18.7,10.92,3.58,2.06,7.68.05,7.68-3.78C236.82,288.43,236.79,273.08,236.8,257.74Zm-9.69,35.06c0,1.46-.3,1.84-1.74,1q-21.59-12.72-43.23-25.34l-8.23-4.84c.07-.14.13-.29.19-.44q25.65,0,51.3,0c1.38,0,1.73.51,1.72,1.8Q227.08,278.87,227.11,292.8Zm239.61-35.7c-.37-2.25-1.89-3.28-4-3.71a14.08,14.08,0,0,0-2.82-.24H420.4c-11.4,0-22.81,0-34.2,0-4.55,0-6.5,1.87-6.46,6.26.15,14.39.22,28.8,0,43.18-.08,4.9,4,7.23,8.12,4.82,7.95-4.6,15.86-9.28,23.78-13.93l34.93-20.44c5.91-3.47,11.81-7,17.75-10.39C466.52,261.38,467.12,259.46,466.72,257.1Zm-72.3,34.81-.37.22c-4.47,2.57-4.47,2.57-4.47-2.51,0-8.11,0-16.23,0-24.34,0-1.33.09-2.15,1.83-2.14,17,.06,34.05,0,51.09.05a4.23,4.23,0,0,1,.75.16ZM233.75,253.67a10.84,10.84,0,0,0-3.65-.54q-18.3,0-36.61,0H156.88a12.91,12.91,0,0,0-3,.28c-2.34.55-4,1.92-4.21,4.09a4.84,4.84,0,0,0,2.62,5.1c2.43,1.33,4.79,2.79,7.17,4.19l51,29.82c6.23,3.65,12.45,7.32,18.7,10.92,3.58,2.06,7.68.05,7.68-3.78,0-15.34,0-30.69,0-46A4.06,4.06,0,0,0,233.75,253.67Zm-6.64,39.13c0,1.46-.3,1.84-1.74,1q-21.59-12.72-43.23-25.34l-8.23-4.84c.07-.14.13-.29.19-.44q25.65,0,51.3,0c1.38,0,1.73.51,1.72,1.8Q227.08,278.87,227.11,292.8Zm235.57-39.41a14.08,14.08,0,0,0-2.82-.24H420.4c-11.4,0-22.81,0-34.2,0-4.55,0-6.5,1.87-6.46,6.26.15,14.39.22,28.8,0,43.18-.08,4.9,4,7.23,8.12,4.82,7.95-4.6,15.86-9.28,23.78-13.93l34.93-20.44c5.91-3.47,11.81-7,17.75-10.39,2.24-1.29,2.84-3.21,2.44-5.57S464.83,253.82,462.68,253.39Zm-68.26,38.52-.37.22c-4.47,2.57-4.47,2.57-4.47-2.51,0-8.11,0-16.23,0-24.34,0-1.33.09-2.15,1.83-2.14,17,.06,34.05,0,51.09.05a4.23,4.23,0,0,1,.75.16ZM233.75,253.67a10.84,10.84,0,0,0-3.65-.54q-18.3,0-36.61,0H156.88a12.91,12.91,0,0,0-3,.28c-2.34.55-4,1.92-4.21,4.09a4.84,4.84,0,0,0,2.62,5.1c2.43,1.33,4.79,2.79,7.17,4.19l51,29.82c6.23,3.65,12.45,7.32,18.7,10.92,3.58,2.06,7.68.05,7.68-3.78,0-15.34,0-30.69,0-46A4.06,4.06,0,0,0,233.75,253.67Zm-6.64,39.13c0,1.46-.3,1.84-1.74,1q-21.59-12.72-43.23-25.34l-8.23-4.84c.07-.14.13-.29.19-.44q25.65,0,51.3,0c1.38,0,1.73.51,1.72,1.8Q227.08,278.87,227.11,292.8Zm358.45,30.7c-.81-5.52-.3-11.07-.67-16.61-.59-8.87-.72-17.78-.94-26.68-.22-9.12-.47-18.24-.87-27.35s-.63-18.38-.89-27.56c-.22-7.89-.36-15.78-.56-23.66a15.9,15.9,0,0,0-.26-2.38c-.77-4.14-3.41-5.57-7.33-4-9.18,3.76-18.37,7.5-27.51,11.33-1.85.78-2.22.45-2.21-1.55q.09-42,0-84V85.72c0-16.15,0-32.31,0-48.47,0-2.3-.91-3.8-3-4.55a6.16,6.16,0,0,0-5.07.46q-26,13.37-52,26.67L446.46,79.19q-23.41,12-46.83,23.91a7.92,7.92,0,0,1-3.76.89q-87.54,0-175.07,0a8,8,0,0,1-3.77-.89q-16.54-8.53-33.12-17L146.27,66.83Q125.6,56.26,104.92,45.69c-8.32-4.24-16.69-8.42-25-12.75-3.7-1.94-6-.11-7.26,2-.75,1.2-.46,2.57-.46,3.86q0,78.11,0,156.2c0,3.29,0,6.58,0,9.87,0,2.43-.12,2.53-2.26,1.65-3.17-1.32-6.31-2.68-9.47-4C54.6,200,48.71,197.44,42.78,195c-4.19-1.74-7.07.42-7.38,4.9C35,206.43,35,213,34.69,219.56c-.42,8.81-.63,17.64-.92,26.47-.26,8.31-.6,16.61-.86,24.93-.29,8.9-.51,17.8-.92,26.69-.32,7.07-.42,14.16-.53,21.24-.05,2.75-.85,5.46-.07,8.25,4,14.59,8,29.2,12,43.78.86,3.07,1.12,6.41,3,9.09,7.11,10.33,14.36,20.57,21.54,30.85q16.23,23.24,32.46,46.45a5.83,5.83,0,0,1,1.08,4.87c-.58,3-.74,6.05-1.08,9.09-.64,5.56-1.25,11.13-1.91,16.69s-1.37,11.11-2,16.66c-.84,7-1.58,14-2.5,21a5.28,5.28,0,0,0,6.44,5.81Q144.7,519.26,189,507c1.43-.4,1.91,0,2.54,1.13q17.61,30.91,35.29,61.78c1,1.75,1.94,3.54,3.92,4.57q26,13.59,51.95,27.29c6.92,3.63,14,7,20.71,11,3.6,2.09,6.54,2.13,10.17.17,15.08-8.17,30.29-16.1,45.46-24.1q13.75-7.26,27.55-14.45a6,6,0,0,0,2.48-2.38l23.54-41.26c4.16-7.29,8.34-14.57,12.46-21.87.78-1.39,1.53-1.89,3.28-1.41,14.57,4.09,29.18,8,43.78,12q22.42,6.12,44.84,12.28a3.46,3.46,0,0,0,2.9-.28c2.68-1.51,3.44-3.35,2.94-6.86-.63-4.39-1.17-8.79-1.68-13.19-.78-6.79-1.48-13.6-2.27-20.39-1.13-9.82-2.24-19.65-3.53-29.45a5.1,5.1,0,0,1,1.1-4q14.25-20.34,28.46-40.71c6.93-9.92,14-19.77,20.8-29.76,2.25-3.28,5.14-6.22,6.24-10.21q6.11-22.44,12.17-44.88C584.85,329.25,586,326.47,585.56,323.5ZM82,204V45.14c5.37,2.71,10.39,5.21,15.38,7.76q17.25,8.82,34.5,17.68l56.34,28.84q13,6.63,25.89,13.33a7.86,7.86,0,0,0,3.77.91q90.48,0,181,0c2.69,0,4.71-1.47,6.88-2.56,11.59-5.87,23.13-11.83,34.7-17.76Q468.5,79,496.56,64.62q18.33-9.38,36.64-18.79c1.13-.58,1.58-.62,1.48.79,0,.43,0,.87,0,1.31V203.45c0,.37,0,.73,0,1.09.11,1.43-.26,1.64-1.55.88-5.6-3.28-11.27-6.46-16.9-9.69q-21.84-12.51-43.67-25-21.45-12.31-42.91-24.63Q408.59,134,387.52,121.84a5.45,5.45,0,0,0-5.8,0L329.33,152c-6.4,3.67-12.81,7.3-19.19,11a3.11,3.11,0,0,1-3.57.07c-15.73-9.1-31.51-18.1-47.27-27.14q-12.24-7-24.49-14a5.41,5.41,0,0,0-5.79.07q-25.71,14.79-51.43,29.55-21.83,12.54-43.69,25-22.79,13.07-45.55,26.16c-1.71,1-3.44,1.93-5.11,3-1,.65-1.28.24-1.24-.75C82,204.56,82,204.26,82,204Zm369.92-33.5c0,.76-1.22.89-1.9,1.28q-27.27,15.62-54.55,31.2-26.91,15.36-53.83,30.7-16,9.12-31.92,18.29c-.44.24-.9.45-1.42.7-.73-.37-1.45-.7-2.14-1.1q-18-10.28-35.92-20.55-19.19-11-38.37-22-19-10.87-38-21.7-14.07-8-28.16-16c-1.29-.72-1.28-1.1,0-1.81,5.39-3.07,10.74-6.2,16.12-9.29l37.61-21.56c3.8-2.18,7.63-4.31,11.37-6.58a2.25,2.25,0,0,1,2.62.22q9.7,5.52,19.39,11.08,17.57,10.07,35.15,20.14c5.5,3.15,11,6.29,16.5,9.51a6.81,6.81,0,0,0,7.57,0c13.52-7.83,27.1-15.53,40.67-23.28,10.07-5.76,20.16-11.5,30.18-17.34a3.1,3.1,0,0,1,3.58,0c10.43,6,20.89,12,31.34,18s21,12.06,31.51,18.09a4.08,4.08,0,0,1,.77.42C450.7,169.41,452,169.56,451.92,170.47Zm-410.37,147c-.3-8.14.42-16.14.54-24.16.13-8.75.55-17.49.85-26.23s.58-17.2.87-25.8.49-17.35.93-26c.15-2.75.21-5.52.37-8.55,3.8,1.61,7.41,3.12,11,4.66,4.76,2,9.5,4.11,14.28,6.09a2.6,2.6,0,0,1,1.86,2.78q0,39.36.07,78.71c0,1,0,1.78-1.1,2.35q-14.6,8-29.13,16A2.47,2.47,0,0,1,41.55,317.45ZM149.44,429.23c0,25.3,0,50.59.06,75.88,0,2.13-.72,2.84-2.64,3.37-13.27,3.56-26.51,7.25-39.75,10.91-2.4.66-2.6.61-2.35-1.79.55-5.28,1.22-10.55,1.86-15.81q1-8.43,2.06-16.87,1.25-10.28,2.49-20.56c.22-1.73.36-3.47.59-5.2a6.11,6.11,0,0,0-1.47-4.44l-31.46-45q-11.67-16.67-23.34-33.32c-2-2.82-2.2-6.28-3.09-9.49-3.38-12.19-6.63-24.42-10-36.6-.43-1.53,0-2.12,1.27-2.83q16.19-8.73,32.27-17.62a2.5,2.5,0,0,1,2.82,0q34,19.67,68.06,39.25a4.63,4.63,0,0,1,2.69,4.64C149.41,378.94,149.44,404.08,149.44,429.23Zm228.07,139c-21.69,11.3-43.41,22.53-64.91,34.16-3.69,2-6.05,1.29-9.25-.45-10.18-5.56-20.52-10.83-30.8-16.22q-16.67-8.76-33.33-17.53a3.22,3.22,0,0,1-2-3.39c.18-3.94.07-7.89,0-11.84q-.19-30.69-.41-61.38c0-.42,0-.84.09-1.59,3.94,2.24,7.67,4.34,11.38,6.47Q271.35,509.74,294.4,523c3.36,1.93,6.71,3.85,10,5.84a6.85,6.85,0,0,0,7.59,0q27.59-15.92,55.25-31.7l12.13-7a2.69,2.69,0,0,1,.38,2c0,24.14,0,48.26.06,72.4A3.58,3.58,0,0,1,377.51,568.28ZM236.79,376.63c0-5.85.07-11.7,0-17.55,0-2,.47-2,2-1.1q24.54,14.19,49.11,28.29c5.94,3.42,11.91,6.78,17.87,10.16a5.21,5.21,0,0,0,5.41-.15q10.17-5.79,20.32-11.62L371.3,361.8c2.09-1.2,4.17-2.41,6.27-3.59s2.24-1.21,2.24,1.45v16c0,6.14-.05,12.28,0,18.42a3.25,3.25,0,0,1-1.89,3.3q-27.69,15.72-55.32,31.53c-4.24,2.42-8.51,4.8-12.72,7.27a2.82,2.82,0,0,1-3.2,0q-34.29-19.6-68.63-39.1a2.39,2.39,0,0,1-1.31-2.46C236.81,388.61,236.79,382.62,236.79,376.63ZM310,449.14q31.17,15.8,62.4,31.45c.45.22.89.48,1.62.87-3.42,2-6.65,3.85-9.89,5.7-17.22,9.85-34.48,19.63-51.63,29.61-2.93,1.71-5,2-8.19.16-15.83-9.34-31.86-18.36-47.81-27.48l-14-8,3.44-1.75q30.22-15.23,60.45-30.45A3.56,3.56,0,0,1,310,449.14Zm147.39-99.71q.1,49.57,0,99.16v53.53c0,2.92,0,2.89-2.77,2.12q-14.08-3.93-28.19-7.77c-3.81-1.05-5.37-.28-7.35,3.17q-14.31,25-28.68,49.93c-.13.24-.33.45-.9,1.24v-3q0-32.91,0-65.82c0-2.68-.86-4.48-3.39-5.74-11.71-5.81-23.35-11.76-35-17.65l-29.89-15.14c-.77-.39-1.52-.84-2.61-1.45,3.45-2,6.63-3.85,9.82-5.68q28.81-16.41,57.66-32.79a6.15,6.15,0,0,0,3.33-5.9q0-24.25,0-48.49c0-4.83-3.8-7.19-8-4.82-9.22,5.17-18.36,10.5-27.54,15.77-13.28,7.64-26.7,15.05-39.77,23.05-4.44,2.73-7.52,2.44-11.86-.14-18.5-11-37.27-21.55-55.94-32.26-3.8-2.18-7.59-4.38-11.45-6.44-4.33-2.3-7.76-.19-7.76,4.7,0,16.38,0,32.76-.05,49.15a5.84,5.84,0,0,0,3.24,5.68q20.56,11.67,41.08,23.42,12.64,7.22,25.31,14.41a4.21,4.21,0,0,1,.61.52c-.41.74-1.1.87-1.65,1.15l-44.58,22.55-21.3,10.79a5.14,5.14,0,0,0-3,4.92c0,19.52-.06,39.05.1,58.58,0,3.56.21,7.14-.07,10.92-1.37-2.3-2.78-4.58-4.11-6.9q-12.93-22.48-25.84-45c-1.58-2.76-3.28-3.48-6.4-2.63-9.61,2.63-19.2,5.31-28.82,7.94-2.46.67-2.48.63-2.48-2q0-76,0-152c0-3.87-1.35-6.22-4.8-8.16-14.05-7.92-27.93-16.14-41.87-24.24-9.4-5.46-18.78-11-28.21-16.36a3.44,3.44,0,0,1-2-3.48c.09-6.51.06-13,0-19.53q-.15-29.26-.37-58.53a3.77,3.77,0,0,1,2.15-3.81q26.92-15.3,53.78-30.75c5-2.87,10-5.7,15-8.63a3,3,0,0,1,3.4.09q21.15,12.15,42.39,24.21,19.29,11,38.58,22,21,12,42,24c8.49,4.84,17,9.61,25.47,14.55a6.39,6.39,0,0,0,7,.05l23-13.12,39.35-22.45,45.82-26.16Q440.25,188.6,460.57,177a2.82,2.82,0,0,1,3.21.12q26.89,15.56,53.85,31c5.07,2.91,10.11,5.83,15.2,8.71a3.24,3.24,0,0,1,1.89,3.29c-.7,26.31-.28,52.63-.37,78.94a2.58,2.58,0,0,1-1.45,2.61q-24.12,13.85-48.19,27.76C476.81,334,468.93,338.6,461,343,458.32,344.51,457.41,346.48,457.42,349.43ZM574.2,330.59c-4,14.28-7.85,28.6-11.77,42.9-1,3.55-3.62,6.12-5.62,9-6.85,10-13.87,19.84-20.82,29.74q-15.09,21.47-30.2,42.92A6.46,6.46,0,0,0,505,460c.93,7.94,2,15.85,2.95,23.79.82,6.85,1.5,13.73,2.3,20.59.5,4.25,1.1,8.49,1.68,12.74.33,2.42.16,2.6-2.25,2-13.53-3.7-27.07-7.42-40.62-11-1.73-.47-1.82-1.45-1.82-2.87q0-38,0-76.09c0-25.23,0-50.45,0-75.67a4,4,0,0,1,2.25-4q22-12.6,44-25.31c8-4.62,16.07-9.23,24.06-13.91a2.88,2.88,0,0,1,3.34-.14q15.88,8.79,31.92,17.35C574.22,328.16,574.68,328.87,574.2,330.59Zm.64-13.36c-.54.3-1-.37-1.53-.64-9-5-18-10-27.06-14.84a3.15,3.15,0,0,1-1.94-3.21q.09-39.15,0-78.3a2.59,2.59,0,0,1,1.94-2.86c8-3.27,15.85-6.69,23.77-10.06a2.14,2.14,0,0,1,1.58-.33c0,3.84.21,7.69.38,11.54.29,6.42.29,12.85.53,19.27q.53,14.1,1,28.22c.24,8.23.59,16.47.85,24.71s.73,16.47.81,24.72C575.15,316.05,575.49,316.88,574.84,317.23Zm-338-59.49a4.06,4.06,0,0,0-3.05-4.07,10.84,10.84,0,0,0-3.65-.54q-18.3,0-36.61,0H156.88a12.91,12.91,0,0,0-3,.28c-2.34.55-4,1.92-4.21,4.09a4.84,4.84,0,0,0,2.62,5.1c2.43,1.33,4.79,2.79,7.17,4.19l51,29.82c6.23,3.65,12.45,7.32,18.7,10.92,3.58,2.06,7.68.05,7.68-3.78C236.82,288.43,236.79,273.08,236.8,257.74Zm-9.69,35.06c0,1.46-.3,1.84-1.74,1q-21.59-12.72-43.23-25.34l-8.23-4.84c.07-.14.13-.29.19-.44q25.65,0,51.3,0c1.38,0,1.73.51,1.72,1.8Q227.08,278.87,227.11,292.8Zm239.61-35.7c-.37-2.25-1.89-3.28-4-3.71a14.08,14.08,0,0,0-2.82-.24H420.4c-11.4,0-22.81,0-34.2,0-4.55,0-6.5,1.87-6.46,6.26.15,14.39.22,28.8,0,43.18-.08,4.9,4,7.23,8.12,4.82,7.95-4.6,15.86-9.28,23.78-13.93l34.93-20.44c5.91-3.47,11.81-7,17.75-10.39C466.52,261.38,467.12,259.46,466.72,257.1Zm-72.3,34.81-.37.22c-4.47,2.57-4.47,2.57-4.47-2.51,0-8.11,0-16.23,0-24.34,0-1.33.09-2.15,1.83-2.14,17,.06,34.05,0,51.09.05a4.23,4.23,0,0,1,.75.16ZM236.8,257.74a4.06,4.06,0,0,0-3.05-4.07,10.84,10.84,0,0,0-3.65-.54q-18.3,0-36.61,0H156.88a12.91,12.91,0,0,0-3,.28c-2.34.55-4,1.92-4.21,4.09a4.84,4.84,0,0,0,2.62,5.1c2.43,1.33,4.79,2.79,7.17,4.19l51,29.82c6.23,3.65,12.45,7.32,18.7,10.92,3.58,2.06,7.68.05,7.68-3.78C236.82,288.43,236.79,273.08,236.8,257.74Zm-9.69,35.06c0,1.46-.3,1.84-1.74,1q-21.59-12.72-43.23-25.34l-8.23-4.84c.07-.14.13-.29.19-.44q25.65,0,51.3,0c1.38,0,1.73.51,1.72,1.8Q227.08,278.87,227.11,292.8Zm239.61-35.7c-.37-2.25-1.89-3.28-4-3.71a14.08,14.08,0,0,0-2.82-.24H420.4c-11.4,0-22.81,0-34.2,0-4.55,0-6.5,1.87-6.46,6.26.15,14.39.22,28.8,0,43.18-.08,4.9,4,7.23,8.12,4.82,7.95-4.6,15.86-9.28,23.78-13.93l34.93-20.44c5.91-3.47,11.81-7,17.75-10.39C466.52,261.38,467.12,259.46,466.72,257.1Zm-72.3,34.81-.37.22c-4.47,2.57-4.47,2.57-4.47-2.51,0-8.11,0-16.23,0-24.34,0-1.33.09-2.15,1.83-2.14,17,.06,34.05,0,51.09.05a4.23,4.23,0,0,1,.75.16ZM236.8,257.74a4.06,4.06,0,0,0-3.05-4.07,10.84,10.84,0,0,0-3.65-.54q-18.3,0-36.61,0H156.88a12.91,12.91,0,0,0-3,.28c-2.34.55-4,1.92-4.21,4.09a4.84,4.84,0,0,0,2.62,5.1c2.43,1.33,4.79,2.79,7.17,4.19l51,29.82c6.23,3.65,12.45,7.32,18.7,10.92,3.58,2.06,7.68.05,7.68-3.78C236.82,288.43,236.79,273.08,236.8,257.74Zm-9.69,35.06c0,1.46-.3,1.84-1.74,1q-21.59-12.72-43.23-25.34l-8.23-4.84c.07-.14.13-.29.19-.44q25.65,0,51.3,0c1.38,0,1.73.51,1.72,1.8Q227.08,278.87,227.11,292.8Zm239.61-35.7c-.37-2.25-1.89-3.28-4-3.71a14.08,14.08,0,0,0-2.82-.24H420.4c-11.4,0-22.81,0-34.2,0-4.55,0-6.5,1.87-6.46,6.26.15,14.39.22,28.8,0,43.18-.08,4.9,4,7.23,8.12,4.82,7.95-4.6,15.86-9.28,23.78-13.93l34.93-20.44c5.91-3.47,11.81-7,17.75-10.39C466.52,261.38,467.12,259.46,466.72,257.1Zm-72.3,34.81-.37.22c-4.47,2.57-4.47,2.57-4.47-2.51,0-8.11,0-16.23,0-24.34,0-1.33.09-2.15,1.83-2.14,17,.06,34.05,0,51.09.05a4.23,4.23,0,0,1,.75.16ZM236.8,257.74a4.06,4.06,0,0,0-3.05-4.07,10.84,10.84,0,0,0-3.65-.54q-18.3,0-36.61,0H156.88a12.91,12.91,0,0,0-3,.28c-2.34.55-4,1.92-4.21,4.09a4.84,4.84,0,0,0,2.62,5.1c2.43,1.33,4.79,2.79,7.17,4.19l51,29.82c6.23,3.65,12.45,7.32,18.7,10.92,3.58,2.06,7.68.05,7.68-3.78C236.82,288.43,236.79,273.08,236.8,257.74Zm-9.69,35.06c0,1.46-.3,1.84-1.74,1q-21.59-12.72-43.23-25.34l-8.23-4.84c.07-.14.13-.29.19-.44q25.65,0,51.3,0c1.38,0,1.73.51,1.72,1.8Q227.08,278.87,227.11,292.8Zm239.61-35.7c-.37-2.25-1.89-3.28-4-3.71a14.08,14.08,0,0,0-2.82-.24H420.4c-11.4,0-22.81,0-34.2,0-4.55,0-6.5,1.87-6.46,6.26.15,14.39.22,28.8,0,43.18-.08,4.9,4,7.23,8.12,4.82,7.95-4.6,15.86-9.28,23.78-13.93l34.93-20.44c5.91-3.47,11.81-7,17.75-10.39C466.52,261.38,467.12,259.46,466.72,257.1Zm-72.3,34.81-.37.22c-4.47,2.57-4.47,2.57-4.47-2.51,0-8.11,0-16.23,0-24.34,0-1.33.09-2.15,1.83-2.14,17,.06,34.05,0,51.09.05a4.23,4.23,0,0,1,.75.16ZM236.8,257.74a4.06,4.06,0,0,0-3.05-4.07,10.84,10.84,0,0,0-3.65-.54q-18.3,0-36.61,0H156.88a12.91,12.91,0,0,0-3,.28c-2.34.55-4,1.92-4.21,4.09a4.84,4.84,0,0,0,2.62,5.1c2.43,1.33,4.79,2.79,7.17,4.19l51,29.82c6.23,3.65,12.45,7.32,18.7,10.92,3.58,2.06,7.68.05,7.68-3.78C236.82,288.43,236.79,273.08,236.8,257.74Zm-9.69,35.06c0,1.46-.3,1.84-1.74,1q-21.59-12.72-43.23-25.34l-8.23-4.84c.07-.14.13-.29.19-.44q25.65,0,51.3,0c1.38,0,1.73.51,1.72,1.8Q227.08,278.87,227.11,292.8Zm239.61-35.7c-.37-2.25-1.89-3.28-4-3.71a14.08,14.08,0,0,0-2.82-.24H420.4c-11.4,0-22.81,0-34.2,0-4.55,0-6.5,1.87-6.46,6.26.15,14.39.22,28.8,0,43.18-.08,4.9,4,7.23,8.12,4.82,7.95-4.6,15.86-9.28,23.78-13.93l34.93-20.44c5.91-3.47,11.81-7,17.75-10.39C466.52,261.38,467.12,259.46,466.72,257.1Zm-72.3,34.81-.37.22c-4.47,2.57-4.47,2.57-4.47-2.51,0-8.11,0-16.23,0-24.34,0-1.33.09-2.15,1.83-2.14,17,.06,34.05,0,51.09.05a4.23,4.23,0,0,1,.75.16ZM236.8,257.74a4.06,4.06,0,0,0-3.05-4.07,10.84,10.84,0,0,0-3.65-.54q-18.3,0-36.61,0H156.88a12.91,12.91,0,0,0-3,.28c-2.34.55-4,1.92-4.21,4.09a4.84,4.84,0,0,0,2.62,5.1c2.43,1.33,4.79,2.79,7.17,4.19l51,29.82c6.23,3.65,12.45,7.32,18.7,10.92,3.58,2.06,7.68.05,7.68-3.78C236.82,288.43,236.79,273.08,236.8,257.74Zm-9.69,35.06c0,1.46-.3,1.84-1.74,1q-21.59-12.72-43.23-25.34l-8.23-4.84c.07-.14.13-.29.19-.44q25.65,0,51.3,0c1.38,0,1.73.51,1.72,1.8Q227.08,278.87,227.11,292.8Zm239.61-35.7c-.37-2.25-1.89-3.28-4-3.71a14.08,14.08,0,0,0-2.82-.24H420.4c-11.4,0-22.81,0-34.2,0-4.55,0-6.5,1.87-6.46,6.26.15,14.39.22,28.8,0,43.18-.08,4.9,4,7.23,8.12,4.82,7.95-4.6,15.86-9.28,23.78-13.93l34.93-20.44c5.91-3.47,11.81-7,17.75-10.39C466.52,261.38,467.12,259.46,466.72,257.1Zm-72.3,34.81-.37.22c-4.47,2.57-4.47,2.57-4.47-2.51,0-8.11,0-16.23,0-24.34,0-1.33.09-2.15,1.83-2.14,17,.06,34.05,0,51.09.05a4.23,4.23,0,0,1,.75.16ZM236.8,257.74a4.06,4.06,0,0,0-3.05-4.07,10.84,10.84,0,0,0-3.65-.54q-18.3,0-36.61,0H156.88a12.91,12.91,0,0,0-3,.28c-2.34.55-4,1.92-4.21,4.09a4.84,4.84,0,0,0,2.62,5.1c2.43,1.33,4.79,2.79,7.17,4.19l51,29.82c6.23,3.65,12.45,7.32,18.7,10.92,3.58,2.06,7.68.05,7.68-3.78C236.82,288.43,236.79,273.08,236.8,257.74Zm-9.69,35.06c0,1.46-.3,1.84-1.74,1q-21.59-12.72-43.23-25.34l-8.23-4.84c.07-.14.13-.29.19-.44q25.65,0,51.3,0c1.38,0,1.73.51,1.72,1.8Q227.08,278.87,227.11,292.8Zm239.61-35.7c-.37-2.25-1.89-3.28-4-3.71a14.08,14.08,0,0,0-2.82-.24H420.4c-11.4,0-22.81,0-34.2,0-4.55,0-6.5,1.87-6.46,6.26.15,14.39.22,28.8,0,43.18-.08,4.9,4,7.23,8.12,4.82,7.95-4.6,15.86-9.28,23.78-13.93l34.93-20.44c5.91-3.47,11.81-7,17.75-10.39C466.52,261.38,467.12,259.46,466.72,257.1Zm-72.3,34.81-.37.22c-4.47,2.57-4.47,2.57-4.47-2.51,0-8.11,0-16.23,0-24.34,0-1.33.09-2.15,1.83-2.14,17,.06,34.05,0,51.09.05a4.23,4.23,0,0,1,.75.16ZM236.8,257.74a4.06,4.06,0,0,0-3.05-4.07,10.84,10.84,0,0,0-3.65-.54q-18.3,0-36.61,0H156.88a12.91,12.91,0,0,0-3,.28c-2.34.55-4,1.92-4.21,4.09a4.84,4.84,0,0,0,2.62,5.1c2.43,1.33,4.79,2.79,7.17,4.19l51,29.82c6.23,3.65,12.45,7.32,18.7,10.92,3.58,2.06,7.68.05,7.68-3.78C236.82,288.43,236.79,273.08,236.8,257.74Zm-9.69,35.06c0,1.46-.3,1.84-1.74,1q-21.59-12.72-43.23-25.34l-8.23-4.84c.07-.14.13-.29.19-.44q25.65,0,51.3,0c1.38,0,1.73.51,1.72,1.8Q227.08,278.87,227.11,292.8Zm239.61-35.7c-.37-2.25-1.89-3.28-4-3.71a14.08,14.08,0,0,0-2.82-.24H420.4c-11.4,0-22.81,0-34.2,0-4.55,0-6.5,1.87-6.46,6.26.15,14.39.22,28.8,0,43.18-.08,4.9,4,7.23,8.12,4.82,7.95-4.6,15.86-9.28,23.78-13.93l34.93-20.44c5.91-3.47,11.81-7,17.75-10.39C466.52,261.38,467.12,259.46,466.72,257.1Zm-72.3,34.81-.37.22c-4.47,2.57-4.47,2.57-4.47-2.51,0-8.11,0-16.23,0-24.34,0-1.33.09-2.15,1.83-2.14,17,.06,34.05,0,51.09.05a4.23,4.23,0,0,1,.75.16ZM236.8,257.74a4.06,4.06,0,0,0-3.05-4.07,10.84,10.84,0,0,0-3.65-.54q-18.3,0-36.61,0H156.88a12.91,12.91,0,0,0-3,.28c-2.34.55-4,1.92-4.21,4.09a4.84,4.84,0,0,0,2.62,5.1c2.43,1.33,4.79,2.79,7.17,4.19l51,29.82c6.23,3.65,12.45,7.32,18.7,10.92,3.58,2.06,7.68.05,7.68-3.78C236.82,288.43,236.79,273.08,236.8,257.74Zm-9.69,35.06c0,1.46-.3,1.84-1.74,1q-21.59-12.72-43.23-25.34l-8.23-4.84c.07-.14.13-.29.19-.44q25.65,0,51.3,0c1.38,0,1.73.51,1.72,1.8Q227.08,278.87,227.11,292.8Zm239.61-35.7c-.37-2.25-1.89-3.28-4-3.71a14.08,14.08,0,0,0-2.82-.24H420.4c-11.4,0-22.81,0-34.2,0-4.55,0-6.5,1.87-6.46,6.26.15,14.39.22,28.8,0,43.18-.08,4.9,4,7.23,8.12,4.82,7.95-4.6,15.86-9.28,23.78-13.93l34.93-20.44c5.91-3.47,11.81-7,17.75-10.39C466.52,261.38,467.12,259.46,466.72,257.1Zm-72.3,34.81-.37.22c-4.47,2.57-4.47,2.57-4.47-2.51,0-8.11,0-16.23,0-24.34,0-1.33.09-2.15,1.83-2.14,17,.06,34.05,0,51.09.05a4.23,4.23,0,0,1,.75.16Z" transform="translate(-31.05 -32.12)"/><path class="cls-1" d="M236.8,257.74a4.06,4.06,0,0,0-3.05-4.07,10.84,10.84,0,0,0-3.65-.54q-18.3,0-36.61,0H156.88a12.91,12.91,0,0,0-3,.28c-2.34.55-4,1.92-4.21,4.09a4.84,4.84,0,0,0,2.62,5.1c2.43,1.33,4.79,2.79,7.17,4.19l51,29.82c6.23,3.65,12.45,7.32,18.7,10.92,3.58,2.06,7.68.05,7.68-3.78C236.82,288.43,236.79,273.08,236.8,257.74Zm-9.69,35.06c0,1.46-.3,1.84-1.74,1q-21.59-12.72-43.23-25.34l-8.23-4.84c.07-.14.13-.29.19-.44q25.65,0,51.3,0c1.38,0,1.73.51,1.72,1.8Q227.08,278.87,227.11,292.8Z" transform="translate(-31.05 -32.12)"/><path class="cls-1" d="M466.72,257.1c-.37-2.25-1.89-3.28-4-3.71a14.08,14.08,0,0,0-2.82-.24H420.4c-11.4,0-22.81,0-34.2,0-4.55,0-6.5,1.87-6.46,6.26.15,14.39.22,28.8,0,43.18-.08,4.9,4,7.23,8.12,4.82,7.95-4.6,15.86-9.28,23.78-13.93l34.93-20.44c5.91-3.47,11.81-7,17.75-10.39C466.52,261.38,467.12,259.46,466.72,257.1Zm-72.3,34.81-.37.22c-4.47,2.57-4.47,2.57-4.47-2.51,0-8.11,0-16.23,0-24.34,0-1.33.09-2.15,1.83-2.14,17,.06,34.05,0,51.09.05a4.23,4.23,0,0,1,.75.16Z" transform="translate(-31.05 -32.12)"/><path class="cls-1" d="M236.8,257.74a4.06,4.06,0,0,0-3.05-4.07,10.84,10.84,0,0,0-3.65-.54q-18.3,0-36.61,0H156.88a12.91,12.91,0,0,0-3,.28c-2.34.55-4,1.92-4.21,4.09a4.84,4.84,0,0,0,2.62,5.1c2.43,1.33,4.79,2.79,7.17,4.19l51,29.82c6.23,3.65,12.45,7.32,18.7,10.92,3.58,2.06,7.68.05,7.68-3.78C236.82,288.43,236.79,273.08,236.8,257.74Zm-9.69,35.06c0,1.46-.3,1.84-1.74,1q-21.59-12.72-43.23-25.34l-8.23-4.84c.07-.14.13-.29.19-.44q25.65,0,51.3,0c1.38,0,1.73.51,1.72,1.8Q227.08,278.87,227.11,292.8Z" transform="translate(-31.05 -32.12)"/><path class="cls-1" d="M466.72,257.1c-.37-2.25-1.89-3.28-4-3.71a14.08,14.08,0,0,0-2.82-.24H420.4c-11.4,0-22.81,0-34.2,0-4.55,0-6.5,1.87-6.46,6.26.15,14.39.22,28.8,0,43.18-.08,4.9,4,7.23,8.12,4.82,7.95-4.6,15.86-9.28,23.78-13.93l34.93-20.44c5.91-3.47,11.81-7,17.75-10.39C466.52,261.38,467.12,259.46,466.72,257.1Zm-72.3,34.81-.37.22c-4.47,2.57-4.47,2.57-4.47-2.51,0-8.11,0-16.23,0-24.34,0-1.33.09-2.15,1.83-2.14,17,.06,34.05,0,51.09.05a4.23,4.23,0,0,1,.75.16Z" transform="translate(-31.05 -32.12)"/></svg>