<?xml version="1.0" encoding="utf-8"?>
<!-- Generator: Adobe Illustrator 19.0.0, SVG Export Plug-In . SVG Version: 6.00 Build 0)  -->
<svg version="1.1" id="layer" xmlns="http://www.w3.org/2000/svg" xmlns:xlink="http://www.w3.org/1999/xlink" x="0px" y="0px"
	 viewBox="-153 -46 652 652" style="enable-background:new -153 -46 652 652;" xml:space="preserve">
<style type="text/css">
	.st0{fill:#D9272E;}
</style>
<path class="st0" d="M250.7,267c-7.5,0-13.1,5.5-13.1,13.2c0,7.2,5.1,13.2,13.1,13.2c7.9,0,13.1-6.2,13.1-13.2
	C263.8,272.6,258.2,267,250.7,267 M293.9,280.2c0,21.9-15.3,40.7-43.2,40.7c-27.4,0-43.2-17.9-43.2-40.7c0-22.3,15.4-40.7,43.2-40.7
	C278.2,239.5,293.9,257.8,293.9,280.2 M53.7,242.9c0,0,4.1,12.5,5.4,16.2c1.6,4.4,3.2,11.2,3.6,14.9h0.8c0.4-3.6,2.1-10.6,3.6-14.9
	c1-2.8,5.4-16.2,5.4-16.2h30.8l-29.8,74.5H42.4l4.8-12.5l-25-62H53.7z M393.7,242.9v74.5h36.2c29.1,0,44-15.6,44-37.2
	c0-21.4-14.4-37.2-44-37.2H393.7z M443.4,280.2c0,9.2-6,14.2-15.1,14.2h-4.5v-28.5h4.5C438.8,265.9,443.4,272.4,443.4,280.2
	 M7.3,317.4c0,0-5.2-14.8-8.3-23.6c-2.5-7.1-5.1-17.5-5.9-21.4h-0.8c-0.8,4.3-3.1,14.3-5.4,21.2c-3.2,9.9-7.9,23.9-7.9,23.9h-59.7
	l-14.2-32.2c7.4-0.6,14.4-3.7,14.4-12.3c0-4.6-3.4-10.2-12-10.2H-96v54.7h-30.1v-74.5h36.7c24.6,0,36.6,10.8,36.6,27.3
	c0,12.4-7.9,18.6-10.1,20.1l10.9,21.4h0.3l27.6-68.8h34.2l29.8,74.5H7.3z M300.3,242.9v74.5h29.7v-14c0-7.9-0.7-18.6-0.9-21.6h0.8
	c2,4.5,5.8,12.5,8.8,17.2c3,4.7,11.9,18.5,11.9,18.5h31.6v-74.5h-29.7V259c0,6.3,0.4,14.4,0.8,19.6h-0.8c-0.9-2-7.1-15.1-10-19.6
	c-2.9-4.5-10.3-16.1-10.3-16.1H300.3z M85.9,317.4h34c0,0,4.4-14.7,5.7-18.7c1.5-4.6,2.6-10.7,3.4-14.1h0.8
	c0.7,3.4,2.1,9.6,3.6,14.2c1.4,4.6,5.9,18.7,5.9,18.7h19.2c0,0,4.3-13.9,5.9-18.7c1.5-4.4,2.8-10.6,3.5-14.2h0.8
	c0.9,4.2,2.1,10,3.4,14.3c1.3,4.3,5.7,18.6,5.7,18.6h34L182,242.9h-24.6c0,0-3.5,11.7-4.9,16.2c-1.2,4-2.7,10.6-3.4,14.1h-0.8
	c-0.8-3.7-1.9-9.6-3.3-14.1c-1.6-5.1-4.9-16.2-4.9-16.2h-24.4L85.9,317.4z"/>
</svg>
